<svg width="40" height="44" viewBox="0 0 40 44" fill="none" xmlns="http://www.w3.org/2000/svg">
<path d="M33.6667 44C31.9074 44 30.412 43.3904 29.1806 42.1712C27.9491 40.9521 27.3333 39.4717 27.3333 37.73C27.3333 37.4367 27.4259 36.8133 27.6111 35.86L11 26.235C10.397 26.8708 9.7 27.3689 8.90889 27.7294C8.11778 28.0898 7.25926 28.27 6.33333 28.27C4.57407 28.27 3.0787 27.6604 1.84722 26.4412C0.615741 25.2221 0 23.7417 0 22C0 20.2583 0.615741 18.7779 1.84722 17.5587C3.0787 16.3396 4.57407 15.73 6.33333 15.73C7.22222 15.73 8.05556 15.9005 8.83333 16.2415C9.61111 16.5821 10.2963 17.0533 10.8889 17.655L27.6111 8.14C27.537 7.84667 27.4722 7.54417 27.4167 7.2325C27.3611 6.92083 27.3333 6.6 27.3333 6.27C27.3333 4.52833 27.9491 3.04792 29.1806 1.82875C30.412 0.609583 31.9074 0 33.6667 0C35.4259 0 36.9213 0.609583 38.1528 1.82875C39.3843 3.04792 40 4.52833 40 6.27C40 8.01167 39.3843 9.49208 38.1528 10.7112C36.9213 11.9304 35.4259 12.54 33.6667 12.54C32.8048 12.54 31.9967 12.375 31.2422 12.045C30.4881 11.715 29.8148 11.275 29.2222 10.725L12.3333 20.02C12.4444 20.3133 12.5278 20.6342 12.5833 20.9825C12.6389 21.3308 12.6667 21.6608 12.6667 21.9725C12.6667 22.2842 12.6481 22.5775 12.6111 22.8525C12.5741 23.1275 12.5185 23.4117 12.4444 23.705L29.2778 33.22C29.8704 32.67 30.5387 32.2392 31.2828 31.9275C32.0272 31.6158 32.8248 31.46 33.6756 31.46C35.4474 31.46 36.9444 32.0696 38.1667 33.2887C39.3889 34.5079 40 35.9883 40 37.73C40 39.4717 39.3843 40.9521 38.1528 42.1712C36.9213 43.3904 35.4259 44 33.6667 44ZM33.6689 40.7C34.5193 40.7 35.2315 40.4151 35.8056 39.8453C36.3796 39.2759 36.6667 38.57 36.6667 37.7278C36.6667 36.8859 36.3789 36.1808 35.8033 35.6125C35.2281 35.0442 34.5152 34.76 33.6644 34.76C32.8141 34.76 32.1019 35.0449 31.5278 35.6147C30.9537 36.1841 30.6667 36.89 30.6667 37.7322C30.6667 38.5741 30.9544 39.2792 31.53 39.8475C32.1052 40.4158 32.8181 40.7 33.6689 40.7ZM6.33556 24.97C7.18593 24.97 7.89815 24.6851 8.47222 24.1153C9.0463 23.5459 9.33333 22.84 9.33333 21.9978C9.33333 21.1559 9.04556 20.4508 8.47 19.8825C7.89482 19.3142 7.18185 19.03 6.33111 19.03C5.48074 19.03 4.76852 19.3149 4.19444 19.8847C3.62037 20.4541 3.33333 21.16 3.33333 22.0022C3.33333 22.8441 3.62111 23.5492 4.19667 24.1175C4.77185 24.6858 5.48481 24.97 6.33556 24.97ZM33.6689 9.24C34.5193 9.24 35.2315 8.9551 35.8056 8.3853C36.3796 7.81587 36.6667 7.11003 36.6667 6.2678C36.6667 5.42593 36.3789 4.72083 35.8033 4.1525C35.2281 3.58417 34.5152 3.3 33.6644 3.3C32.8141 3.3 32.1019 3.5849 31.5278 4.1547C30.9537 4.72413 30.6667 5.42997 30.6667 6.2722C30.6667 7.11407 30.9544 7.81917 31.53 8.3875C32.1052 8.95583 32.8181 9.24 33.6689 9.24Z" fill="#1F1F1F"/>
</svg>
