<svg width="977" height="103" viewBox="0 0 977 103" fill="none" xmlns="http://www.w3.org/2000/svg">
<path d="M67.25 77.2979C67.25 72.6916 66.3291 68.8188 64.5352 65.6387C62.7029 62.3905 60.2402 59.4664 57.1367 56.8662L57.127 56.8574C54.0556 54.2126 50.5947 51.5622 46.7422 48.9082L46.7363 48.9053C41.3034 45.1108 36.9002 41.9585 33.5283 39.4512L33.5176 39.4443C30.1979 36.9109 27.6964 34.468 26.0635 32.1094L26.0586 32.1016L26.0537 32.0947C24.3782 29.5815 23.5596 26.6239 23.5596 23.2666C23.5597 19.1554 24.8961 15.8728 27.6699 13.5771C30.3777 11.3362 33.761 10.2461 37.7441 10.2461C42.4616 10.2461 46.537 11.7956 49.915 14.8955L50.543 15.4746C53.636 18.4159 56.0505 22.0533 57.7949 26.3672C59.6087 30.6542 60.7301 35.0623 61.1553 39.5879H62.208V24.9365L62.209 24.9258C62.2952 20.9598 62.3814 17.7662 62.4678 15.3467V15.3281L62.4697 15.3105C62.6093 13.3559 62.719 11.6017 62.8018 10.0479H61.7422C61.4975 11.5514 61.1806 12.7769 60.7734 13.6875C60.5569 14.2696 60.2336 14.7908 59.7549 15.167C59.2555 15.5594 58.6638 15.7353 58.0381 15.7354C57.2918 15.7354 56.5257 15.5758 55.748 15.2842L55.6729 15.2559L55.6025 15.2158C54.9985 14.8706 54.1822 14.3974 53.1543 13.7979C51.0606 12.6255 48.4853 11.4843 45.4189 10.377C42.4758 9.31415 38.2576 8.75588 32.7031 8.75586C27.2941 8.75586 22.1928 9.60027 17.3936 11.2842C12.6337 12.9543 8.82704 15.5289 5.93848 18.9951L5.93066 19.0039C3.10175 22.3178 1.64656 26.6808 1.64648 32.1855C1.64648 36.7693 2.64346 40.6731 4.59668 43.9355L4.99512 44.5576C7.03032 47.6497 9.65963 50.4596 12.8945 52.9844C16.408 55.7266 20.1813 58.4702 24.2139 61.2158C27.9344 63.6393 31.1918 66.0705 33.9824 68.5098L34.5234 68.9609C37.1915 71.2294 39.3324 73.7076 40.9307 76.3994H40.9297C42.6728 79.2487 43.5264 82.5771 43.5264 86.3467C43.5263 89.185 42.8375 91.673 41.4141 93.7607C40.0055 95.8266 38.0418 97.4048 35.5645 98.5059L35.5566 98.5098L35.5488 98.5127C33.1532 99.5262 30.2982 100.014 27.0156 100.014C21.2965 100.014 16.5947 98.3542 13.0137 94.957L13.0039 94.9473L12.9941 94.9385C9.58527 91.5296 7.0553 87.1136 5.37891 81.7314L5.37695 81.7246L5.37402 81.7178C3.88049 76.6563 2.94225 71.2495 2.55176 65.501H1.51465C1.51088 72.3802 1.47006 78.0859 1.3877 82.6162C1.38758 87.3375 1.34469 91.2101 1.25879 94.2314L1.25391 95.3213C1.23827 97.3853 1.17671 99.2743 1.07031 100.987H2.1084C2.34283 99.4786 2.61516 98.2665 2.9375 97.3799L2.95117 97.3428L2.9668 97.3076C3.23245 96.7232 3.59722 96.2129 4.09375 95.8486C4.60156 95.4762 5.18984 95.2998 5.81641 95.2998C7.14543 95.2998 8.79894 96.0338 10.6777 97.2217C13.0253 98.3081 15.8899 99.3632 19.2812 100.381H19.2822C22.6866 101.377 27.2771 101.892 33.0908 101.892V102.892L32.0059 102.886C27.0053 102.829 22.8956 102.377 19.6768 101.528L19.001 101.341C15.985 100.436 13.3649 99.4981 11.1406 98.5273L10.2109 98.1094C8.43378 96.9785 7.03553 96.3774 6.01562 96.3066L5.81641 96.2998C4.95473 96.2999 4.30878 96.7738 3.87793 97.7217C3.57638 98.5511 3.30689 99.743 3.07129 101.298L2.97266 101.987H0C0.15081 100.027 0.23506 97.8019 0.253906 95.3135L0.258789 94.2314C0.323417 91.9695 0.363724 89.2226 0.379883 85.9912L0.387695 82.5977C0.473869 77.8581 0.516602 71.8257 0.516602 64.501H3.49023C3.83493 70.5332 4.78285 76.178 6.33398 81.4346C7.97129 86.691 10.4266 90.9569 13.7012 94.2314C16.9568 97.3202 21.2236 98.9122 26.501 99.0088L27.0156 99.0137C30.0047 99.0136 32.5774 98.5978 34.7334 97.7646L35.1592 97.5918C37.3401 96.6224 39.0666 95.2744 40.3389 93.5479L40.5879 93.1973C41.7997 91.42 42.4438 89.3017 42.5195 86.8428L42.5264 86.3467C42.5264 82.7274 41.7076 79.5815 40.0703 76.9102C38.5353 74.325 36.4703 71.9291 33.875 69.7227L33.3486 69.2842C30.5911 66.8713 27.3597 64.4578 23.6543 62.0449C19.6042 59.2874 15.8123 56.53 12.2793 53.7725C8.96714 51.1873 6.26059 48.2994 4.16016 45.1084L3.74805 44.4658C1.80922 41.2344 0.779423 37.4348 0.658203 33.0674L0.646484 32.1855C0.646559 26.6761 2.06122 22.1773 4.8916 18.6895L5.16992 18.3555C7.99753 14.9623 11.6585 12.4016 16.1523 10.6748L17.0625 10.3408C21.9743 8.6174 27.1881 7.75586 32.7031 7.75586L33.7383 7.7627C38.843 7.82833 42.8494 8.38631 45.7578 9.43652C48.8598 10.5567 51.4883 11.7194 53.6426 12.9258C54.6764 13.5289 55.4955 14.003 56.0986 14.3477C56.7018 14.5738 57.2724 14.7012 57.8096 14.7295L58.0381 14.7354C58.8459 14.7353 59.4268 14.3193 59.7803 13.4863L59.8477 13.3135C60.2784 12.3656 60.6233 10.9434 60.8818 9.04785H63.8545C63.7683 10.8574 63.6391 12.9691 63.4668 15.3818C63.3806 17.7947 63.2942 20.9833 63.208 24.9473V40.5879H60.2354C59.9122 36.1445 58.9072 31.8148 57.2207 27.5986L56.875 26.7568C55.1785 22.5559 52.8376 19.0369 49.8535 16.1992L49.248 15.6406C46.1592 12.8023 42.464 11.3387 38.1621 11.25L37.7441 11.2461C33.9525 11.2461 30.8067 12.2795 28.3076 14.3477C25.8087 16.4158 24.5597 19.389 24.5596 23.2666L24.5684 23.8594C24.6592 26.7982 25.4315 29.3587 26.8857 31.54C28.4369 33.7805 30.8504 36.1504 34.125 38.6494C37.4857 41.1484 41.8808 44.2935 47.3096 48.085C51.1873 50.7563 54.6771 53.4283 57.7793 56.0996C60.9677 58.771 63.5105 61.7867 65.4062 65.1475C67.302 68.5082 68.25 72.5584 68.25 77.2979L68.2451 77.8359C68.1461 83.3692 66.51 87.9723 63.3379 91.6455C60.1495 95.4371 55.8836 98.2809 50.541 100.177L49.5332 100.506C44.4689 102.096 38.9882 102.892 33.0908 102.892V101.892C39.2793 101.892 44.9816 101.002 50.2061 99.2344C55.4058 97.3893 59.5141 94.6387 62.5723 91.002L62.5811 90.9922C65.675 87.4096 67.25 82.8702 67.25 77.2979Z" fill="white"/>
<path d="M142.388 67.6035C142.388 58.9905 141.021 52.2349 138.369 47.2627C135.708 42.2736 131.99 38.7321 127.209 36.5889L127.199 36.584L127.189 36.5801C122.439 34.3299 116.775 33.1855 110.167 33.1855C103.648 33.1856 97.9813 34.3292 93.1396 36.583L93.126 36.5889C88.3451 38.7321 84.6267 42.2736 81.9658 47.2627C79.314 52.2349 77.9473 58.9905 77.9473 67.6035C77.9473 76.2165 79.314 82.9721 81.9658 87.9443C84.6267 92.9334 88.3451 96.4749 93.126 98.6182C97.9711 100.79 103.644 101.892 110.167 101.892V102.892C103.739 102.892 98.0798 101.84 93.1885 99.7373L92.7168 99.5312C87.8749 97.3607 84.0849 93.8147 81.3457 88.8945L81.084 88.4141C78.4126 83.4052 77.0346 76.7387 76.9512 68.4141L76.9473 67.6035C76.9473 59.1719 78.2412 52.3981 80.8291 47.2822L81.084 46.792C83.8415 41.6219 87.719 37.9162 92.7168 35.6758C97.7148 33.3491 103.532 32.1856 110.167 32.1855C116.888 32.1855 122.705 33.3492 127.617 35.6758C132.615 37.9162 136.493 41.6218 139.251 46.792C142.009 51.9624 143.388 58.9 143.388 67.6035L143.384 68.4141C143.3 76.7386 141.922 83.4052 139.251 88.4141C136.493 93.5845 132.615 97.2907 127.617 99.5312C122.705 101.772 116.888 102.892 110.167 102.892V101.892C116.779 101.892 122.448 100.789 127.202 98.6211L127.209 98.6182C131.99 96.4749 135.708 92.9334 138.369 87.9443C141.021 82.9721 142.388 76.2165 142.388 67.6035ZM119.216 67.6035C119.216 56.4167 118.407 48.2224 116.789 43.0205L116.631 42.5273C114.961 37.5183 112.887 34.9347 110.408 34.7783L110.167 34.7715C107.582 34.7717 105.427 37.3572 103.704 42.5273L103.545 43.0205C101.927 48.2224 101.119 56.4169 101.119 67.6035L101.129 69.7314C101.23 80.183 102.088 87.8324 103.704 92.6797C105.374 97.6054 107.448 100.145 109.927 100.299L110.167 100.307C112.752 100.307 114.907 97.7639 116.631 92.6797C118.247 87.8324 119.104 80.1829 119.205 69.7314L119.216 67.6035ZM120.216 67.6035C120.216 79.1656 119.357 87.6626 117.579 92.9961L117.577 93.001C116.697 95.5983 115.678 97.6392 114.485 99.0469C113.277 100.473 111.834 101.307 110.167 101.307C108.5 101.307 107.058 100.472 105.85 99.0469C104.657 97.6392 103.637 95.5983 102.757 93.001L102.756 92.9961C100.978 87.6626 100.119 79.1656 100.119 67.6035C100.119 56.0414 100.978 47.5445 102.756 42.2109C103.636 39.5717 104.654 37.4997 105.845 36.0703C107.05 34.6237 108.493 33.7716 110.167 33.7715C111.841 33.7715 113.285 34.6236 114.49 36.0703C115.681 37.4997 116.699 39.5717 117.579 42.2109C119.357 47.5445 120.216 56.0415 120.216 67.6035Z" fill="white"/>
<path d="M156.076 81.0469V48.085C156.076 44.4495 155.622 41.723 154.713 39.9053L154.525 39.5537C153.491 37.6579 151.595 36.71 148.838 36.71V33.9961C151.251 34.2223 153.597 34.3487 155.878 34.377L156.852 34.3838C161.16 34.3838 165.168 34.2546 168.873 33.9961C172.665 33.6514 176.154 33.1774 179.343 32.5742V88.0264C179.343 89.836 179.558 91.3444 179.989 92.5508C180.42 93.7572 181.11 94.6624 182.058 95.2656C183.005 95.8688 184.212 96.1699 185.677 96.1699C187.212 96.1699 188.634 95.8292 189.941 95.1475L190.201 95.0068C191.494 94.2797 192.559 93.2876 193.397 92.0303L193.562 91.7754C194.509 90.3104 194.983 88.6729 194.983 86.8633V48.085C194.983 44.4495 194.529 41.723 193.62 39.9053L193.433 39.5537C192.399 37.658 190.503 36.71 187.745 36.71V33.9961C190.158 34.2223 192.505 34.3487 194.786 34.377L195.76 34.3838C200.068 34.3838 204.075 34.2546 207.78 33.9961C211.572 33.6514 215.063 33.1774 218.251 32.5742V86.9922L218.257 87.708C218.317 91.2274 218.832 93.876 219.802 95.6533C220.922 97.4629 222.818 98.3672 225.489 98.3672V101.082C223.152 100.856 220.814 100.728 218.477 100.7L217.476 100.694C213.167 100.694 209.16 100.824 205.454 101.082L204.074 101.189C200.879 101.463 197.849 101.901 194.983 102.504V93.1973C192.915 96.644 190.115 99.1432 186.582 100.694L185.929 100.96C182.627 102.248 178.794 102.892 174.432 102.892V101.892C178.982 101.892 182.893 101.175 186.19 99.7734C189.386 98.368 191.945 96.1434 193.883 93.0732C193.016 94.2306 191.952 95.1688 190.691 95.8779C189.158 96.7407 187.48 97.1699 185.677 97.1699C184.079 97.1699 182.671 96.8414 181.521 96.1094C180.359 95.3703 179.543 94.2718 179.048 92.8867C178.566 91.5379 178.343 89.907 178.343 88.0264V33.7725C175.446 34.2804 172.319 34.6862 168.964 34.9912L168.942 34.9932C165.211 35.2535 161.18 35.3838 156.852 35.3838C154.577 35.3838 152.239 35.2841 149.838 35.0869V35.7529C152.352 35.9685 154.284 37.0281 155.4 39.0713C156.562 41.1131 157.076 44.168 157.076 48.085V81.0469C157.076 85.4077 157.377 88.811 157.955 91.2891C158.497 93.6135 159.316 95.4399 160.378 96.8125L160.597 97.0859C161.608 98.3142 163.057 99.3766 164.991 100.248L165.385 100.42L165.394 100.423L165.401 100.427C167.549 101.381 170.538 101.892 174.432 101.892V102.892L173.697 102.886C170.077 102.825 167.176 102.31 164.995 101.341C162.755 100.393 161.032 99.1864 159.825 97.7217C158.613 96.2675 157.705 94.3582 157.099 91.9951L156.981 91.5166C156.454 89.2546 156.157 86.2999 156.091 82.6523L156.076 81.0469ZM195.983 86.8633C195.983 88.38 195.678 89.7991 195.068 91.1104L195.983 89.5869V101.283C198.953 100.714 202.087 100.314 205.384 100.084C209.116 99.8236 213.147 99.6943 217.476 99.6943C219.814 99.6943 222.152 99.7926 224.489 99.9883V99.3242C222.052 99.1135 220.143 98.1047 218.951 96.1797L218.938 96.1562L218.924 96.1318C217.769 94.0141 217.251 90.9235 217.251 86.9922V33.7715C214.354 34.2795 211.227 34.6862 207.871 34.9912L207.86 34.9922L207.851 34.9932C204.119 35.2535 200.088 35.3838 195.76 35.3838C193.485 35.3838 191.147 35.2841 188.745 35.0869V35.7529C191.26 35.9684 193.191 37.0281 194.308 39.0713C195.469 41.1131 195.983 44.1679 195.983 48.085V86.8633Z" fill="white"/>
<path d="M237.39 89.0605V15.5117C237.39 11.8766 236.935 9.14976 236.026 7.33203L235.838 6.98047C234.804 5.08464 232.908 4.13672 230.15 4.13672V1.42188C232.563 1.64808 234.911 1.77543 237.191 1.80371L238.165 1.80957C242.474 1.80957 246.481 1.6804 250.187 1.42188C253.978 1.07719 257.468 0.603194 260.656 0V89.0605C260.656 92.6797 261.173 95.1361 262.207 96.4287C263.327 97.7212 265.223 98.3671 267.895 98.3672V101.082C266.602 101.017 264.825 100.952 262.562 100.888L260.14 100.823C257.124 100.672 254.041 100.588 250.894 100.569L249.54 100.565C245.921 100.565 242.258 100.651 238.553 100.823C234.847 100.909 232.046 100.996 230.15 101.082V98.3672C232.655 98.3672 234.441 97.7994 235.506 96.6631L235.709 96.4287C236.759 95.2169 237.317 92.9824 237.383 89.7256L237.39 89.0605ZM238.39 89.0605C238.39 90.9155 238.247 92.5149 237.944 93.8398C237.647 95.1416 237.181 96.2405 236.489 97.0527C235.335 98.4955 233.474 99.1879 231.15 99.3359V100.04C232.984 99.9683 235.437 99.8957 238.506 99.8242C242.226 99.6512 245.905 99.5654 249.54 99.5654C253.17 99.5654 256.715 99.6515 260.175 99.8242C262.982 99.8944 265.222 99.9656 266.895 100.036V99.3369C264.559 99.189 262.677 98.4971 261.452 97.084L261.438 97.0684L261.427 97.0537C260.775 96.2384 260.341 95.1322 260.065 93.8232C259.788 92.505 259.656 90.9119 259.656 89.0605V1.19824C256.759 1.70625 253.632 2.11293 250.276 2.41797L250.267 2.41895L250.256 2.41992C246.524 2.68029 242.493 2.80957 238.165 2.80957C235.89 2.80957 233.552 2.71088 231.15 2.51367V3.17969C233.66 3.39461 235.589 4.44974 236.706 6.48438H236.707C237.874 8.52619 238.39 11.5866 238.39 15.5117V89.0605Z" fill="white"/>
<path d="M308.973 89.0605V48.085C308.973 44.4496 308.518 41.723 307.609 39.9053L307.422 39.5537C306.388 37.658 304.492 36.71 301.734 36.71V33.9961C304.147 34.2223 306.494 34.3487 308.774 34.377L309.748 34.3838C314.057 34.3838 318.064 34.2546 321.77 33.9961C325.561 33.6514 329.051 33.1774 332.239 32.5742V89.0605C332.239 92.6799 332.757 95.1361 333.791 96.4287C334.911 97.7212 336.807 98.3672 339.479 98.3672V101.082C338.186 101.017 336.408 100.952 334.146 100.888L331.723 100.823C328.707 100.672 325.625 100.588 322.477 100.569L321.123 100.565C317.504 100.565 313.841 100.651 310.136 100.823C306.431 100.909 303.63 100.996 301.734 101.082V98.3672C304.239 98.3671 306.024 97.7993 307.089 96.6631L307.292 96.4287C308.342 95.2169 308.9 92.9824 308.966 89.7256L308.973 89.0605ZM332.92 11.1162C332.92 7.65865 331.77 5.23585 329.585 3.65332L329.569 3.64258L329.554 3.62988C327.382 1.92353 324.187 1 319.83 1C315.477 1.00007 312.229 1.92271 309.965 3.64062L309.96 3.64355C307.857 5.22086 306.741 7.64548 306.741 11.1162C306.741 14.5745 307.85 17.0496 309.958 18.7158C312.224 20.3524 315.475 21.2324 319.83 21.2324V22.2324C315.489 22.2324 312.079 21.3838 309.598 19.6855L309.36 19.5186C307.098 17.7412 305.896 15.1686 305.755 11.8008L305.741 11.1162C305.741 7.41088 306.948 4.65336 309.36 2.84375C311.859 0.947991 315.349 6.83281e-05 319.83 0C324.311 0 327.759 0.947923 330.172 2.84375C332.671 4.65337 333.92 7.411 333.92 11.1162C333.92 14.8216 332.671 17.6227 330.172 19.5186L329.942 19.6855C327.542 21.3839 324.171 22.2324 319.83 22.2324V21.2324C324.195 21.2324 327.397 20.349 329.571 18.7188C331.772 17.0476 332.92 14.5706 332.92 11.1162ZM309.973 89.0605C309.973 90.9155 309.83 92.5149 309.527 93.8398C309.23 95.1417 308.765 96.2405 308.072 97.0527C306.918 98.4953 305.058 99.1878 302.734 99.3359V100.04C304.568 99.9683 307.021 99.8957 310.09 99.8242L311.482 99.7637C314.729 99.6312 317.942 99.5654 321.123 99.5654C324.753 99.5654 328.298 99.6515 331.758 99.8242C334.565 99.8944 336.806 99.9655 338.479 100.036V99.3369C336.143 99.1891 334.26 98.4974 333.035 97.084L333.022 97.0684L333.01 97.0537C332.358 96.2384 331.924 95.1322 331.648 93.8232C331.371 92.5051 331.239 90.9118 331.239 89.0605V33.7725C328.342 34.2804 325.216 34.6862 321.86 34.9912L321.839 34.9932C318.107 35.2535 314.076 35.3838 309.748 35.3838C307.474 35.3838 305.136 35.2841 302.734 35.0869V35.7529C305.249 35.9685 307.181 37.0281 308.297 39.0713C309.458 41.1131 309.973 44.168 309.973 48.085V89.0605Z" fill="white"/>
<path d="M351.639 89.0605V48.085C351.639 44.4495 351.184 41.723 350.275 39.9053L350.088 39.5537C349.054 37.6579 347.158 36.71 344.4 36.71V33.9961C346.813 34.2223 349.16 34.3487 351.44 34.377L352.414 34.3838C356.723 34.3838 360.73 34.2546 364.436 33.9961C368.227 33.6514 371.718 33.1774 374.906 32.5742V41.8809C376.845 38.6494 379.389 36.2884 382.54 34.7988L383.179 34.5127C386.712 32.9616 390.805 32.1856 395.458 32.1855C399.422 32.1855 402.524 32.7033 404.765 33.7373C407.091 34.6852 408.858 35.8915 410.064 37.3564C411.357 38.9075 412.305 40.9755 412.908 43.5605C413.511 46.1458 413.813 49.6364 413.813 54.0312V89.0605L413.819 89.7256C413.88 92.9824 414.395 95.2169 415.364 96.4287C416.484 97.7213 418.38 98.3672 421.052 98.3672V101.082C419.759 101.017 417.958 100.952 415.647 100.888L413.167 100.823C410.151 100.672 407.168 100.588 404.218 100.569L402.955 100.565C399.336 100.565 395.803 100.651 392.356 100.823L389.933 100.888C387.671 100.952 385.893 101.017 384.601 101.082V98.3672C386.701 98.3671 388.195 97.7992 389.084 96.6631L389.254 96.4287C390.116 95.1361 390.546 92.6798 390.546 89.0605V47.0508C390.546 45.4673 390.382 44.1148 390.052 42.9932L389.9 42.5273C389.496 41.3963 388.865 40.5296 388.007 39.9287L387.832 39.8125C387.078 39.2847 386.06 38.9879 384.778 38.9219L384.213 38.9072C382.662 38.9072 381.153 39.2957 379.688 40.0713C378.31 40.8469 377.146 41.9667 376.198 43.4316C375.337 44.8103 374.906 46.4044 374.906 48.2139V89.0605L374.911 89.7256C374.962 92.9824 375.39 95.2169 376.198 96.4287C377.146 97.7213 378.697 98.3671 380.852 98.3672V101.082C379.624 101.017 377.96 100.952 375.859 100.888L373.613 100.823C370.823 100.672 367.968 100.588 365.046 100.569L363.789 100.565C360.17 100.565 356.507 100.651 352.802 100.823C349.097 100.909 346.296 100.996 344.4 101.082V98.3672C346.905 98.3672 348.69 97.7992 349.755 96.6631L349.958 96.4287C351.078 95.1361 351.639 92.6799 351.639 89.0605ZM352.639 89.0605C352.639 90.9155 352.496 92.5149 352.193 93.8398C351.896 95.1417 351.431 96.2405 350.738 97.0527L350.739 97.0537C349.585 98.4962 347.724 99.1878 345.4 99.3359V100.04C347.234 99.9683 349.687 99.8957 352.756 99.8242L354.148 99.7637C357.395 99.6312 360.608 99.5654 363.789 99.5654C367.163 99.5654 370.452 99.6512 373.656 99.8242C376.218 99.8935 378.284 99.9635 379.852 100.033V99.3193C377.957 99.1375 376.414 98.4139 375.392 97.0195L375.379 97.002L375.366 96.9834C374.826 96.1729 374.471 95.0815 374.244 93.79C374.015 92.4858 373.906 90.9047 373.906 89.0605V48.2139C373.906 46.7745 374.158 45.438 374.67 44.2168L373.906 45.4912V33.7715C371.009 34.2795 367.882 34.6862 364.526 34.9912L364.505 34.9932C360.773 35.2535 356.742 35.3838 352.414 35.3838C350.14 35.3838 347.802 35.2841 345.4 35.0869V35.7529C347.915 35.9684 349.847 37.0281 350.963 39.0713C352.124 41.1131 352.639 44.168 352.639 48.085V89.0605ZM391.546 89.0605C391.546 90.9047 391.437 92.4858 391.208 93.79C390.981 95.0815 390.626 96.1729 390.086 96.9834C389.124 98.4257 387.553 99.1461 385.601 99.3223V100.036C387.272 99.9656 389.513 99.8944 392.319 99.8242C395.779 99.6514 399.325 99.5654 402.955 99.5654C406.328 99.5654 409.743 99.6516 413.201 99.8242C416.081 99.8945 418.366 99.9655 420.052 100.036V99.3369C417.716 99.189 415.833 98.4974 414.608 97.084L414.596 97.0684L414.584 97.0537C413.932 96.2384 413.498 95.1322 413.223 93.8232C412.945 92.505 412.813 90.9119 412.813 89.0605V54.0312C412.813 49.67 412.513 46.2663 411.935 43.7881C411.356 41.3091 410.463 39.3968 409.297 37.9971L409.293 37.9922C408.221 36.69 406.609 35.568 404.388 34.6631L404.366 34.6543L404.346 34.6455C402.292 33.6979 399.355 33.1855 395.458 33.1855C390.915 33.1856 386.963 33.9435 383.58 35.4287L383.569 35.4326C380.505 36.7348 378.013 38.8704 376.087 41.875C376.971 40.7655 378.008 39.8689 379.198 39.1992L379.209 39.1934L379.221 39.1875C380.82 38.341 382.488 37.9072 384.213 37.9072C385.858 37.9073 387.281 38.2224 388.368 38.9688H388.369C389.53 39.7078 390.347 40.8055 390.842 42.1904C391.324 43.5393 391.546 45.1701 391.546 47.0508V89.0605Z" fill="white"/>
<path d="M481.44 90.2227V35.5801H494.108V34.9951H481.44V14.7441C478.367 16.3589 475.162 17.5847 471.825 18.4189L471.817 18.4219L471.81 18.4229C468.292 19.241 464.411 19.6746 460.174 19.7334V34.9951H450.35V35.5801H460.174V80.5283C460.174 84.9752 460.431 88.57 460.933 91.3311L461.03 91.8086C461.556 94.167 462.638 96.1519 464.275 97.7891C465.611 99.1243 467.316 100.124 469.421 100.771L469.432 100.775L469.443 100.778C471.653 101.515 474.13 101.891 476.883 101.891V102.891L476.353 102.886C473.717 102.84 471.308 102.455 469.127 101.728C467.026 101.081 465.267 100.094 463.848 98.7656L463.568 98.4961C461.673 96.6003 460.466 94.2732 459.949 91.5156C459.497 89.0274 459.242 85.9125 459.186 82.1709L459.174 80.5283V36.5801H449.35V33.9951H459.174V18.7422C463.741 18.7422 467.878 18.311 471.583 17.4492C475.374 16.5013 478.994 15.0366 482.44 13.0547V33.9951H495.108V36.5801H482.44V90.2227C482.44 91.86 482.742 93.0672 483.346 93.8428C483.911 94.4889 484.818 94.8317 486.064 94.8721L486.318 94.877C487.266 94.877 488.387 94.6176 489.68 94.1006C490.972 93.4973 492.179 92.5065 493.299 91.1279L495.237 92.6787C493.428 95.7809 491.015 98.28 487.999 100.176L487.44 100.505C484.603 102.095 481.084 102.891 476.883 102.891V101.891C480.961 101.891 484.3 101.118 486.952 99.6318L487.474 99.3252C490.107 97.6685 492.254 95.5315 493.924 92.9082L493.423 92.5078C492.405 93.6045 491.301 94.4474 490.103 95.0068L490.077 95.0186L490.051 95.0293C488.69 95.5734 487.438 95.877 486.318 95.877C484.798 95.8769 483.465 95.4977 482.593 94.501L482.574 94.4795L482.557 94.4561C481.752 93.4217 481.44 91.9469 481.44 90.2227Z" fill="white"/>
<path d="M504.623 89.0605V15.5117C504.623 11.8765 504.169 9.14976 503.26 7.33203L503.072 6.98047C502.038 5.08471 500.142 4.13679 497.385 4.13672V1.42188C500.142 1.68037 502.813 1.80956 505.398 1.80957C509.707 1.80957 513.714 1.6804 517.42 1.42188C521.211 1.07719 524.701 0.603186 527.89 0V41.8809C529.829 38.6493 532.374 36.2884 535.524 34.7988L536.163 34.5127C539.696 32.9617 543.789 32.1856 548.442 32.1855C552.406 32.1855 555.509 32.7033 557.749 33.7373C560.076 34.6852 561.842 35.8915 563.049 37.3564C564.341 38.9075 565.289 40.9755 565.893 43.5605C566.496 46.1458 566.798 49.6364 566.798 54.0312V89.0605L566.804 89.7256C566.864 92.9824 567.379 95.2169 568.349 96.4287C569.469 97.7213 571.365 98.3672 574.036 98.3672V101.082C572.744 101.017 570.942 100.952 568.632 100.888L566.151 100.823C563.135 100.672 560.152 100.588 557.202 100.569L555.939 100.565C552.32 100.565 548.787 100.651 545.34 100.823C541.893 100.909 539.308 100.996 537.585 101.082V98.3672C539.685 98.3671 541.18 97.7993 542.068 96.6631L542.238 96.4287C543.1 95.1361 543.53 92.6798 543.53 89.0605V47.0508C543.53 45.4674 543.366 44.1147 543.036 42.9932L542.885 42.5273C542.481 41.3964 541.85 40.5296 540.991 39.9287L540.816 39.8125C540.062 39.2847 539.044 38.9879 537.763 38.9219L537.197 38.9072C535.646 38.9072 534.138 39.2957 532.673 40.0713C531.294 40.8468 530.131 41.9667 529.183 43.4316C528.321 44.8103 527.89 46.4044 527.89 48.2139V89.0605C527.89 92.6799 528.321 95.1361 529.183 96.4287C530.131 97.7213 531.682 98.3672 533.836 98.3672V101.082C532.608 101.017 530.944 100.952 528.844 100.888L526.598 100.823C523.808 100.672 520.952 100.588 518.03 100.569L516.773 100.565C513.154 100.565 509.492 100.651 505.786 100.823C502.081 100.909 499.281 100.996 497.385 101.082V98.3672C499.889 98.3671 501.674 97.7993 502.739 96.6631L502.942 96.4287C504.063 95.1361 504.623 92.6799 504.623 89.0605ZM544.53 89.0605C544.53 90.9047 544.421 92.4858 544.192 93.79C543.966 95.0815 543.611 96.1729 543.07 96.9834C542.109 98.4257 540.537 99.1461 538.585 99.3223V100.036C540.257 99.9656 542.497 99.8944 545.304 99.8242C548.764 99.6514 552.309 99.5654 555.939 99.5654C559.312 99.5654 562.728 99.6516 566.186 99.8242C569.065 99.8945 571.35 99.9655 573.036 100.036V99.3369C570.701 99.189 568.818 98.4974 567.593 97.084L567.58 97.0684L567.567 97.0537C566.915 96.2384 566.483 95.1322 566.207 93.8232C565.93 92.505 565.798 90.9119 565.798 89.0605V54.0312C565.798 49.67 565.497 46.2663 564.919 43.7881C564.341 41.3091 563.448 39.3968 562.281 37.9971L562.277 37.9922C561.205 36.69 559.593 35.568 557.372 34.6631L557.351 34.6543L557.33 34.6455C555.277 33.6979 552.339 33.1855 548.442 33.1855C543.9 33.1856 539.948 33.9435 536.564 35.4287L536.554 35.4326C533.489 36.7349 530.997 38.8708 529.07 41.876C529.955 40.766 530.992 39.8691 532.183 39.1992L532.193 39.1934L532.205 39.1875C533.804 38.341 535.472 37.9072 537.197 37.9072C538.861 37.9073 540.297 38.2286 541.39 38.9932H541.389C542.531 39.7319 543.337 40.8199 543.826 42.1904C544.308 43.5393 544.53 45.1701 544.53 47.0508V89.0605ZM505.623 89.0605C505.623 90.9155 505.48 92.5149 505.178 93.8398C504.881 95.1417 504.415 96.2405 503.723 97.0527C502.569 98.4953 500.708 99.1878 498.385 99.3359V100.04C500.218 99.9683 502.671 99.8957 505.74 99.8242L507.133 99.7637C510.379 99.6312 513.593 99.5654 516.773 99.5654C520.148 99.5654 523.438 99.6512 526.643 99.8242C529.203 99.8935 531.269 99.9636 532.836 100.033V99.3193C530.941 99.1375 529.399 98.4139 528.376 97.0195L528.363 97.002L528.351 96.9834C527.81 96.1729 527.455 95.0815 527.229 93.79C527 92.4858 526.89 90.9047 526.89 89.0605V48.2139C526.89 46.7721 527.143 45.4338 527.657 44.2109L526.89 45.4912V1.19824C523.993 1.70621 520.866 2.11294 517.511 2.41797L517.489 2.41992C513.757 2.68028 509.727 2.80957 505.398 2.80957C503.124 2.80956 500.786 2.71084 498.385 2.51367V3.17969C500.901 3.39536 502.834 4.45529 503.95 6.50098H503.949C505.109 8.54276 505.623 11.5969 505.623 15.5117V89.0605Z" fill="white"/>
<path d="M602.646 65.7939V63.0791C602.646 62.7662 602.653 62.4534 602.664 62.1406H595.766L595.297 57.6846H602.353C602.82 49.6963 603.742 43.8815 605.175 40.3418C606.673 36.5573 608.808 34.1594 611.789 34.1592C613.991 34.1592 615.557 35.6548 616.583 37.9873C617.586 40.2668 618.292 43.2612 618.729 46.9297L618.88 48.291C619.205 51.5043 619.328 54.9763 619.252 58.7051L619.232 59.6846H604.488L604.67 60.0469L604.717 60.1406H636.117C635.98 50.3508 633.805 43.5945 629.825 39.6143L629.812 39.6006C625.732 35.3575 620.07 33.1856 612.694 33.1855C606.628 33.1855 601.136 34.4067 596.202 36.832L596.196 36.835C591.399 39.1507 587.581 42.833 584.742 47.9258L584.739 47.9316C581.921 52.9042 580.475 59.4392 580.475 67.6035C580.475 76.22 581.799 82.9795 584.37 87.9551C586.959 92.9658 590.391 96.5013 594.649 98.6328C599.068 100.8 603.958 101.892 609.333 101.892V102.892C604.163 102.892 599.409 101.907 595.072 99.9375L594.21 99.5312C589.869 97.3607 586.377 93.8148 583.734 88.8945L583.481 88.4141C580.894 83.4052 579.559 76.7386 579.479 68.4141L579.475 67.6035C579.475 59.3308 580.939 52.6089 583.869 47.4385C586.708 42.3462 590.517 38.5886 595.296 36.165L595.761 35.9346C600.845 33.4355 606.49 32.1855 612.694 32.1855L613.4 32.1924C620.647 32.328 626.358 34.5663 630.532 38.9072C634.927 43.3021 637.125 50.7136 637.125 61.1406H603.719C603.67 61.7868 603.646 62.4329 603.646 63.0791V65.7939L603.654 66.9092C603.74 72.4077 604.47 76.7321 605.844 79.8828C607.395 83.2436 609.291 85.5707 611.531 86.8633C613.713 88.0751 615.894 88.7193 618.075 88.7949L618.511 88.8027C619.717 88.8027 621.139 88.6298 622.776 88.2852C624.5 87.9405 626.353 87.1654 628.335 85.959C630.317 84.6664 632.256 82.7268 634.151 80.1416L636.349 80.917C635.315 84.3639 633.634 87.8109 631.308 91.2578C629.067 94.6186 626.137 97.4196 622.518 99.6602C618.898 101.814 614.503 102.892 609.333 102.892V101.892C614.36 101.892 618.567 100.845 621.998 98.8047C625.499 96.6362 628.32 93.9361 630.476 90.7031L630.479 90.6982C632.551 87.6283 634.087 84.5744 635.102 81.5371L634.51 81.3291C632.704 83.6896 630.831 85.524 628.881 86.7959L628.868 86.8047L628.854 86.8125C626.806 88.0593 624.847 88.8882 622.981 89.2627L622.982 89.2637C621.301 89.6176 619.807 89.8027 618.511 89.8027C615.991 89.8027 613.498 89.1004 611.045 87.7373L611.031 87.7295C608.55 86.2978 606.537 83.7732 604.936 80.3027L604.931 80.293L604.927 80.2832C603.383 76.7407 602.646 71.8859 602.646 65.7939ZM597.566 60.1406H602.48L602.363 59.9072L602.253 59.6846H597.519L597.566 60.1406ZM611.789 35.1592C609.463 35.1594 607.566 37.0117 606.102 40.7168C604.68 44.2298 603.747 50.2193 603.299 58.6846H618.253L618.272 57.1172C618.291 53.4979 618.112 50.1423 617.735 47.0508C617.331 43.6576 616.7 40.9083 615.842 38.8027L615.667 38.3906C614.778 36.3711 613.587 35.2983 612.093 35.1719L611.789 35.1592Z" fill="white"/>
<path d="M742.84 77.2979C742.84 72.6915 741.919 68.8188 740.125 65.6387C738.293 62.3907 735.831 59.4663 732.728 56.8662L732.717 56.8574C729.645 54.2126 726.185 51.5622 722.332 48.9082L722.326 48.9053C716.893 45.1108 712.49 41.9585 709.118 39.4512L709.108 39.4443C705.789 36.911 703.287 34.4679 701.654 32.1094L701.648 32.1016L701.644 32.0947C699.968 29.5815 699.149 26.6239 699.149 23.2666C699.149 19.1554 700.487 15.8728 703.261 13.5771C705.968 11.3365 709.351 10.2461 713.334 10.2461C718.051 10.2461 722.127 11.7956 725.505 14.8955L726.134 15.4746C729.227 18.4158 731.64 22.0535 733.385 26.3672C735.199 30.6542 736.32 35.0623 736.745 39.5879H737.798V24.9365L737.799 24.9258C737.885 20.9598 737.971 17.7662 738.058 15.3467L738.059 15.3281L738.06 15.3105C738.199 13.3559 738.309 11.6017 738.392 10.0479H737.332C737.087 11.5515 736.77 12.7769 736.363 13.6875C736.147 14.2696 735.824 14.7908 735.345 15.167C734.845 15.5594 734.254 15.7353 733.628 15.7354C732.882 15.7354 732.116 15.5758 731.338 15.2842L731.263 15.2559L731.192 15.2158C730.588 14.8706 729.772 14.3974 728.744 13.7979C726.65 12.6255 724.075 11.4843 721.009 10.377C718.066 9.31415 713.848 8.75587 708.293 8.75586C702.884 8.75586 697.783 9.60025 692.983 11.2842C688.224 12.9543 684.417 15.5288 681.528 18.9951L681.521 19.0039C678.692 22.3178 677.236 26.6808 677.236 32.1855C677.236 36.7748 678.236 40.6824 680.193 43.9473C682.279 47.2809 685.038 50.2944 688.484 52.9844C691.998 55.7266 695.771 58.4702 699.804 61.2158C703.524 63.6393 706.782 66.0705 709.572 68.5098C712.489 70.8965 714.809 73.5209 716.514 76.3877L716.83 76.9277C718.364 79.6575 719.116 82.8078 719.116 86.3467C719.116 89.185 718.427 91.673 717.004 93.7607C715.595 95.8265 713.632 97.4048 711.155 98.5059L711.146 98.5098L711.139 98.5127C708.743 99.5262 705.888 100.014 702.605 100.014C696.886 100.014 692.185 98.3543 688.604 94.957L688.594 94.9473L688.584 94.9385C685.175 91.5296 682.645 87.1135 680.969 81.7314L680.965 81.7178C679.471 76.6563 678.532 71.2495 678.142 65.501H677.104C677.101 72.3802 677.06 78.0859 676.978 82.6162C676.977 87.3375 676.935 91.2101 676.849 94.2314L676.844 95.3213C676.828 97.3853 676.767 99.2743 676.66 100.987H677.698C677.933 99.4786 678.205 98.2665 678.527 97.3799L678.541 97.3428L678.558 97.3076C678.823 96.723 679.188 96.2129 679.685 95.8486C680.192 95.4764 680.78 95.2999 681.406 95.2998C682.735 95.2998 684.389 96.0338 686.268 97.2217C688.615 98.3082 691.48 99.3631 694.872 100.381L695.524 100.562C698.855 101.439 703.23 101.892 708.681 101.892V102.892L707.596 102.886C702.596 102.829 698.486 102.377 695.268 101.528L694.591 101.341C691.575 100.436 688.955 99.4981 686.73 98.5273L685.802 98.1094C684.024 96.9784 682.625 96.3773 681.605 96.3066L681.406 96.2998C680.545 96.2999 679.899 96.7739 679.468 97.7217C679.166 98.551 678.898 99.743 678.662 101.298L678.562 101.987H675.59C675.741 100.027 675.826 97.8019 675.845 95.3135L675.849 94.2314C675.935 91.2154 675.978 87.3372 675.978 82.5977C676.064 77.8581 676.106 71.8257 676.106 64.501H679.08C679.425 70.5332 680.373 76.178 681.924 81.4346C683.561 86.691 686.017 90.9569 689.291 94.2314C692.547 97.3203 696.814 98.9123 702.092 99.0088L702.605 99.0137C705.595 99.0137 708.167 98.5978 710.323 97.7646L710.749 97.5918C712.93 96.6224 714.657 95.2746 715.93 93.5479L716.178 93.1973C717.39 91.42 718.034 89.3017 718.109 86.8428L718.116 86.3467C718.116 82.7274 717.297 79.5815 715.66 76.9102C714.125 74.325 712.06 71.9291 709.465 69.7227L708.939 69.2842C706.182 66.8713 702.95 64.4578 699.244 62.0449C695.194 59.2874 691.402 56.5299 687.869 53.7725C684.557 51.1873 681.85 48.2994 679.75 45.1084L679.338 44.4658C677.399 41.2344 676.369 37.4348 676.248 33.0674L676.236 32.1855C676.236 26.6761 677.651 22.1773 680.481 18.6895L680.76 18.3555C683.587 14.9624 687.248 12.4016 691.742 10.6748L692.652 10.3408C697.564 8.61737 702.778 7.75586 708.293 7.75586L709.328 7.7627C714.433 7.82832 718.439 8.38632 721.348 9.43652C724.45 10.5568 727.079 11.7193 729.233 12.9258C730.267 13.529 731.086 14.003 731.689 14.3477C732.292 14.5738 732.862 14.7012 733.399 14.7295L733.628 14.7354C734.49 14.7353 735.093 14.2614 735.438 13.3135C735.868 12.3656 736.213 10.9435 736.472 9.04785H739.444C739.358 10.8574 739.229 12.9691 739.057 15.3818C738.97 17.7947 738.884 20.9833 738.798 24.9473V40.5879H735.825C735.502 36.1445 734.497 31.8148 732.811 27.5986L732.465 26.7568C730.768 22.5559 728.427 19.0369 725.443 16.1992L724.838 15.6406C721.749 12.8023 718.054 11.3387 713.752 11.25L713.334 11.2461C709.542 11.2461 706.397 12.2795 703.897 14.3477C701.399 16.4158 700.149 19.389 700.149 23.2666L700.158 23.8594C700.249 26.7982 701.021 29.3587 702.476 31.54C704.027 33.7806 706.44 36.1504 709.715 38.6494C713.076 41.1484 717.471 44.2934 722.899 48.085C726.777 50.7563 730.267 53.4282 733.369 56.0996C736.558 58.771 739.1 61.7867 740.996 65.1475C742.892 68.5082 743.84 72.5584 743.84 77.2979L743.835 77.8359C743.736 83.3692 742.1 87.9723 738.928 91.6455C735.739 95.4371 731.474 98.2809 726.131 100.177L725.123 100.506C720.059 102.096 714.578 102.892 708.681 102.892V101.892C714.869 101.892 720.571 101.002 725.796 99.2344C730.996 97.3893 735.104 94.6387 738.162 91.002L738.171 90.9922C741.265 87.4095 742.84 82.8702 742.84 77.2979Z" fill="white"/>
<path d="M756.959 89.0605V15.5117C756.959 11.8764 756.505 9.14976 755.596 7.33203L755.408 6.98047C754.374 5.08464 752.478 4.13672 749.721 4.13672V1.42188C752.134 1.64809 754.481 1.77544 756.762 1.80371L757.735 1.80957C762.044 1.80956 766.051 1.68037 769.756 1.42188C773.548 1.07718 777.038 0.60322 780.227 0V41.8809C782.166 38.6492 784.71 36.2883 787.861 34.7988L788.499 34.5127C792.032 32.9616 796.126 32.1855 800.779 32.1855L801.512 32.1924C805.127 32.2529 807.985 32.7678 810.086 33.7373C812.412 34.6852 814.179 35.8915 815.386 37.3564C816.678 38.9075 817.626 40.9756 818.229 43.5605C818.833 46.1458 819.134 49.6364 819.134 54.0312V89.0605C819.134 92.6799 819.651 95.1361 820.686 96.4287C821.806 97.7211 823.701 98.3671 826.372 98.3672V101.082C824.649 100.996 822.02 100.909 818.487 100.823C815.471 100.672 812.488 100.588 809.538 100.569L808.276 100.565C804.657 100.565 801.124 100.651 797.677 100.823L795.253 100.888C792.991 100.952 791.213 101.017 789.921 101.082V98.3672C792.021 98.3672 793.516 97.7992 794.404 96.6631L794.574 96.4287C795.382 95.2169 795.812 92.9824 795.862 89.7256L795.867 89.0605V47.0508C795.867 45.4673 795.702 44.1148 795.372 42.9932L795.221 42.5273C794.817 41.3962 794.186 40.5296 793.327 39.9287L793.152 39.8125C792.291 39.2093 791.084 38.9072 789.533 38.9072C787.982 38.9072 786.474 39.2957 785.009 40.0713C783.63 40.8468 782.466 41.9668 781.519 43.4316C780.657 44.8103 780.227 46.4045 780.227 48.2139V89.0605L780.231 89.7256C780.282 92.9823 780.711 95.2168 781.519 96.4287C782.466 97.7213 784.019 98.3672 786.173 98.3672V101.082C784.536 100.996 782.122 100.909 778.934 100.823C776.144 100.672 773.288 100.588 770.366 100.569L769.11 100.565C765.491 100.565 761.828 100.651 758.123 100.823L755.514 100.888C753.074 100.952 751.143 101.017 749.721 101.082V98.3672C752.225 98.3672 754.01 97.7992 755.075 96.6631L755.279 96.4287C756.4 95.1361 756.959 92.6798 756.959 89.0605ZM796.867 89.0605C796.867 90.9047 796.757 92.4858 796.528 93.79C796.302 95.0815 795.947 96.1729 795.406 96.9834C794.445 98.4257 792.873 99.1462 790.921 99.3223V100.036C792.593 99.9655 794.835 99.8944 797.643 99.8242C801.102 99.6515 804.647 99.5654 808.276 99.5654C811.649 99.5654 815.064 99.6516 818.521 99.8242C821.401 99.8945 823.686 99.9655 825.372 100.036V99.3369C823.037 99.189 821.155 98.4971 819.93 97.084L819.916 97.0684L819.904 97.0537C819.252 96.2384 818.819 95.1322 818.543 93.8232C818.265 92.505 818.134 90.9119 818.134 89.0605V54.0312C818.134 49.67 817.833 46.2663 817.255 43.7881C816.676 41.309 815.784 39.3968 814.617 37.9971L814.613 37.9922C813.541 36.69 811.929 35.5679 809.708 34.6631L809.667 34.6455C807.614 33.6979 804.676 33.1856 800.779 33.1855C796.236 33.1855 792.284 33.9435 788.901 35.4287L788.891 35.4326C785.825 36.7354 783.331 38.8721 781.404 41.8789C782.289 40.7677 783.327 39.8697 784.519 39.1992L784.53 39.1934L784.541 39.1875C786.14 38.341 787.808 37.9072 789.533 37.9072C791.178 37.9072 792.601 38.2225 793.688 38.9688H793.689C794.851 39.7078 795.667 40.8055 796.162 42.1904C796.644 43.5393 796.867 45.1701 796.867 47.0508V89.0605ZM757.959 89.0605C757.959 90.9155 757.817 92.5149 757.515 93.8398C757.214 95.1577 756.742 96.2689 756.035 97.084L756.034 97.083C754.878 98.505 753.028 99.1889 750.721 99.3359V100.04C752.554 99.9683 755.007 99.8957 758.076 99.8242C761.797 99.6512 765.475 99.5654 769.11 99.5654C772.485 99.5654 775.775 99.6512 778.979 99.8242C781.54 99.8935 783.605 99.9636 785.173 100.033V99.3193C783.278 99.1376 781.736 98.414 780.713 97.0195L780.699 97.002L780.687 96.9834C780.146 96.1729 779.791 95.0814 779.564 93.79C779.336 92.4858 779.227 90.9047 779.227 89.0605V48.2139C779.227 46.7746 779.478 45.438 779.99 44.2168L779.227 45.4912V1.19824C776.329 1.70627 773.202 2.11292 769.847 2.41797L769.836 2.41895L769.826 2.41992C766.094 2.68029 762.064 2.80956 757.735 2.80957C755.461 2.80957 753.122 2.71087 750.721 2.51367V3.17969C753.237 3.39526 755.17 4.45529 756.286 6.50098H756.285C757.445 8.54276 757.959 11.5968 757.959 15.5117V89.0605Z" fill="white"/>
<path d="M854.982 65.7939V63.0791C854.982 62.7662 854.99 62.4534 855.001 62.1406H848.102L847.633 57.6846H854.688C855.155 49.6963 856.079 43.8815 857.512 40.3418C859.01 36.5572 861.144 34.1592 864.126 34.1592C866.328 34.1592 867.893 35.655 868.919 37.9873C869.922 40.2668 870.628 43.2612 871.064 46.9297C871.502 50.5174 871.676 54.4437 871.589 58.7051L871.568 59.6846H856.825L857.006 60.0469L857.053 60.1406H888.453C888.316 50.3508 886.141 43.5945 882.161 39.6143L882.147 39.6006C878.068 35.3576 872.406 33.1855 865.03 33.1855C858.964 33.1856 853.473 34.4069 848.539 36.832L848.532 36.835C843.735 39.1507 839.918 42.833 837.079 47.9258L837.075 47.9316C834.257 52.9042 832.811 59.4392 832.811 67.6035C832.811 76.2199 834.135 82.9795 836.706 87.9551C839.295 92.9657 842.727 96.5013 846.985 98.6328C851.404 100.801 856.294 101.892 861.67 101.892V102.892L860.642 102.879C855.868 102.756 851.456 101.776 847.408 99.9375L846.546 99.5312C842.065 97.2907 838.489 93.5844 835.817 88.4141C833.23 83.4052 831.895 76.7385 831.814 68.4141L831.811 67.6035C831.811 59.3308 833.275 52.6089 836.205 47.4385C839.043 42.3462 842.853 38.5886 847.632 36.165L848.098 35.9346C853.182 33.4356 858.826 32.1856 865.03 32.1855C872.614 32.1855 878.56 34.4262 882.869 38.9072C887.264 43.3021 889.461 50.7136 889.461 61.1406H856.055C856.006 61.7868 855.982 62.433 855.982 63.0791V65.7939L855.991 66.9092C856.077 72.4076 856.806 76.7321 858.18 79.8828C859.731 83.2435 861.627 85.5707 863.867 86.8633C866.048 88.0751 868.23 88.7192 870.411 88.7949L870.848 88.8027C872.054 88.8027 873.476 88.6298 875.113 88.2852C876.837 87.9405 878.689 87.1652 880.671 85.959C882.653 84.6664 884.592 82.7268 886.488 80.1416L888.686 80.917L888.484 81.5635C887.439 84.795 885.826 88.0263 883.645 91.2578C881.404 94.6186 878.474 97.4196 874.854 99.6602L874.513 99.8594C870.96 101.881 866.679 102.892 861.67 102.892V101.892C866.697 101.892 870.903 100.845 874.334 98.8047C877.835 96.6362 880.657 93.9362 882.812 90.7031L882.815 90.6982C884.888 87.6284 886.423 84.5743 887.438 81.5371L886.846 81.3281C885.04 83.6887 883.168 85.524 881.218 86.7959L881.204 86.8047L881.191 86.8125C879.143 88.0592 877.184 88.8882 875.318 89.2627L875.319 89.2637C873.638 89.6176 872.144 89.8027 870.848 89.8027C868.328 89.8027 865.835 89.1004 863.382 87.7373L863.375 87.7334L863.367 87.7295C860.886 86.2978 858.873 83.7732 857.271 80.3027L857.268 80.293L857.263 80.2832C855.719 76.7407 854.982 71.8859 854.982 65.7939ZM849.902 60.1406H854.816L854.7 59.9072L854.589 59.6846H849.854L849.902 60.1406ZM864.126 35.1592C861.799 35.1592 859.903 37.0116 858.438 40.7168L858.303 41.0645C856.957 44.6186 856.069 50.492 855.636 58.6846H870.589L870.609 57.1172C870.626 54.0148 870.496 51.1062 870.222 48.3916L870.072 47.0508C869.668 43.6577 869.037 40.9083 868.179 38.8027L868.004 38.3906C867.115 36.3709 865.923 35.2981 864.429 35.1719L864.126 35.1592Z" fill="white"/>
<path d="M902.377 89.0605V15.5117C902.377 11.8765 901.922 9.14976 901.014 7.33203L900.826 6.98047C899.792 5.08472 897.896 4.13679 895.139 4.13672V1.42188C897.896 1.68037 900.567 1.80956 903.152 1.80957C907.461 1.80957 911.468 1.6804 915.174 1.42188C918.965 1.07719 922.455 0.603187 925.644 0V89.0605C925.644 92.6799 926.161 95.1361 927.195 96.4287C928.316 97.7212 930.212 98.3672 932.883 98.3672V101.082C931.59 101.017 929.813 100.952 927.551 100.888L925.127 100.823C922.111 100.672 919.029 100.588 915.881 100.569L914.527 100.565C910.908 100.565 907.245 100.651 903.54 100.823C899.835 100.909 897.034 100.996 895.139 101.082V98.3672C897.643 98.3671 899.428 97.7993 900.493 96.6631L900.696 96.4287C901.747 95.2169 902.304 92.9824 902.37 89.7256L902.377 89.0605ZM903.377 89.0605C903.377 90.9155 903.234 92.5149 902.932 93.8398C902.635 95.1417 902.169 96.2405 901.477 97.0527C900.322 98.4953 898.462 99.1878 896.139 99.3359V100.04C897.972 99.9683 900.425 99.8957 903.494 99.8242L904.887 99.7637C908.133 99.6312 911.346 99.5654 914.527 99.5654C918.157 99.5654 921.702 99.6515 925.162 99.8242C927.969 99.8944 930.211 99.9655 931.883 100.036V99.3369C929.547 99.1891 927.665 98.4974 926.439 97.084L926.427 97.0684L926.414 97.0537C925.762 96.2384 925.328 95.1322 925.053 93.8232C924.775 92.5051 924.644 90.9118 924.644 89.0605V1.19824C921.746 1.70621 918.62 2.11294 915.265 2.41797L915.243 2.41992C911.511 2.68028 907.481 2.80957 903.152 2.80957C900.878 2.80957 898.54 2.71084 896.139 2.51367V3.17969C898.655 3.39537 900.588 4.45529 901.704 6.50098H901.703C902.863 8.54276 903.377 11.5969 903.377 15.5117V89.0605Z" fill="white"/>
<path d="M946.053 89.0605V15.5117C946.053 11.8765 945.598 9.14976 944.689 7.33203L944.502 6.98047C943.468 5.08466 941.572 4.13674 938.814 4.13672V1.42188C941.572 1.68038 944.243 1.80956 946.828 1.80957C951.137 1.80957 955.144 1.68039 958.85 1.42188C962.641 1.07718 966.132 0.60322 969.32 0V89.0605L969.326 89.7256C969.387 92.9824 969.902 95.2169 970.871 96.4287C971.991 97.7213 973.887 98.3672 976.559 98.3672V101.082C974.835 100.996 972.25 100.909 968.803 100.823C965.787 100.672 962.705 100.588 959.557 100.569L958.203 100.565C954.584 100.565 950.922 100.651 947.217 100.823L944.606 100.888C942.167 100.952 940.236 101.017 938.814 101.082V98.3672C941.319 98.3672 943.104 97.7992 944.169 96.6631L944.373 96.4287C945.493 95.1361 946.053 92.6797 946.053 89.0605ZM947.053 89.0605C947.053 90.9155 946.91 92.5149 946.607 93.8398C946.31 95.1417 945.845 96.2405 945.152 97.0527L945.153 97.0537C943.999 98.4962 942.138 99.1878 939.814 99.3359V100.04C941.648 99.9683 944.101 99.8957 947.17 99.8242L948.563 99.7637C951.809 99.6312 955.023 99.5654 958.203 99.5654C961.832 99.5654 965.377 99.6516 968.836 99.8242C971.644 99.8944 973.886 99.9655 975.559 100.036V99.3369C973.223 99.189 971.34 98.4974 970.115 97.084L970.103 97.0684L970.09 97.0537C969.438 96.2384 969.005 95.1322 968.729 93.8232C968.452 92.505 968.32 90.9119 968.32 89.0605V1.19727C965.423 1.70532 962.296 2.11291 958.94 2.41797L958.919 2.41992C955.187 2.68027 951.156 2.80957 946.828 2.80957C944.554 2.80956 942.216 2.71084 939.814 2.51367V3.17969C942.33 3.39532 944.264 4.45529 945.38 6.50098H945.379C946.539 8.54276 947.053 11.5969 947.053 15.5117V89.0605Z" fill="white"/>
<path d="M32.703 7.75586C38.3043 7.75586 42.6561 8.31599 45.7584 9.43625C48.8606 10.5565 51.4889 11.7199 53.6433 12.9263C54.6773 13.5295 55.496 14.0035 56.0992 14.3482C56.7886 14.6067 57.4349 14.7359 58.0381 14.7359C58.8999 14.7359 59.5031 14.262 59.8478 13.3141C60.2787 12.3662 60.6233 10.9443 60.8819 9.04847H63.8549C63.7687 10.8581 63.6394 12.9694 63.4671 15.3823C63.3809 17.7951 63.2947 20.9836 63.2086 24.9476C63.2086 28.9116 63.2086 34.1251 63.2086 40.5881H60.2356C59.8909 35.8486 58.7706 31.2383 56.8748 26.7572C55.0651 22.2762 52.523 18.5707 49.2484 15.6408C46.06 12.7109 42.2252 11.2459 37.7442 11.2459C33.9525 11.2459 30.8072 12.28 28.3081 14.3482C25.8091 16.4163 24.5596 19.3893 24.5596 23.2672C24.5596 26.4556 25.3351 29.2132 26.8863 31.5399C28.4374 33.7804 30.8503 36.1502 34.1249 38.6492C37.4857 41.1483 41.8805 44.2936 47.3095 48.0853C51.1873 50.7566 54.6773 53.428 57.7796 56.0994C60.968 58.7708 63.5102 61.7869 65.406 65.1477C67.3018 68.5085 68.2497 72.5586 68.2497 77.2982C68.2497 83.0719 66.6124 87.8545 63.3378 91.6462C60.1494 95.4378 55.8838 98.2816 50.541 100.177C45.1982 101.987 39.3815 102.892 33.0908 102.892C27.231 102.892 22.5345 102.375 19.0013 101.341C15.5544 100.307 12.6245 99.2295 10.2116 98.1092C8.31578 96.9028 6.85083 96.2996 5.81674 96.2996C4.955 96.2996 4.3087 96.7735 3.87783 97.7214C3.53313 98.6693 3.23152 100.091 2.973 101.987H0C0.172348 99.7465 0.258522 97.1613 0.258522 94.2314C0.344695 91.2153 0.387783 87.3375 0.387783 82.5979C0.473957 77.8583 0.517044 71.8262 0.517044 64.5014H3.49004C3.83474 70.5336 4.78265 76.1779 6.33378 81.4346C7.97109 86.6912 10.427 90.9568 13.7017 94.2314C17.0624 97.4198 21.5004 99.014 27.0155 99.014C30.204 99.014 32.9184 98.5401 35.159 97.5922C37.4857 96.5581 39.2953 95.0931 40.5879 93.1973C41.8805 91.3015 42.5268 89.0179 42.5268 86.3465C42.5268 82.7272 41.7082 79.5818 40.0709 76.9104C38.4336 74.1529 36.193 71.6107 33.3493 69.284C30.5917 66.8712 27.3602 64.4583 23.6547 62.0454C19.6046 59.2879 15.8129 56.5303 12.2798 53.7727C8.74665 51.0152 5.90291 47.9129 3.74857 44.4659C1.68039 41.019 0.646304 36.9257 0.646304 32.1862C0.646304 26.4987 2.15435 21.8884 5.17043 18.3553C8.18652 14.7359 12.1505 12.0646 17.0624 10.3411C21.9743 8.6176 27.1879 7.75586 32.703 7.75586Z" fill="white"/>
<path d="M110.167 32.1855C116.889 32.1855 122.706 33.3489 127.618 35.6756C132.616 37.9161 136.493 41.6216 139.251 46.792C142.009 51.9625 143.387 58.8995 143.387 67.603C143.387 76.3066 142.009 83.2436 139.251 88.414C136.493 93.5845 132.616 97.2899 127.618 99.5305C122.706 101.771 116.889 102.891 110.167 102.891C103.532 102.891 97.7152 101.771 92.7171 99.5305C87.719 97.2899 83.8412 93.5845 81.0836 88.414C78.326 83.2436 76.9473 76.3066 76.9473 67.603C76.9473 58.8995 78.326 51.9625 81.0836 46.792C83.8412 41.6216 87.719 37.9161 92.7171 35.6756C97.7152 33.3489 103.532 32.1855 110.167 32.1855ZM110.167 34.7708C107.582 34.7708 105.428 37.356 103.704 42.5264C101.981 47.6969 101.119 56.0557 101.119 67.603C101.119 79.1503 101.981 87.5092 103.704 92.6796C105.428 97.7639 107.582 100.306 110.167 100.306C112.753 100.306 114.907 97.7639 116.63 92.6796C118.354 87.5092 119.216 79.1503 119.216 67.603C119.216 56.0557 118.354 47.6969 116.63 42.5264C114.907 37.356 112.753 34.7708 110.167 34.7708Z" fill="white"/>
<path d="M218.251 32.5742V86.993C218.251 90.8709 218.768 93.7577 219.802 95.6535C220.922 97.4632 222.818 98.368 225.49 98.368V101.082C222.818 100.824 220.147 100.695 217.475 100.695C213.167 100.695 209.16 100.824 205.454 101.082C201.749 101.341 198.259 101.815 194.984 102.504V93.1976C192.916 96.6445 190.115 99.1436 186.582 100.695C183.135 102.16 179.085 102.892 174.432 102.892C170.468 102.892 167.322 102.375 164.995 101.341C162.755 100.393 161.031 99.1867 159.825 97.7217C158.532 96.1706 157.585 94.1024 156.981 91.5172C156.378 88.932 156.076 85.4419 156.076 81.0471V48.0855C156.076 44.2077 155.559 41.364 154.525 39.5543C153.491 37.6585 151.595 36.7106 148.838 36.7106V33.9961C151.595 34.2546 154.267 34.3839 156.852 34.3839C161.161 34.3839 165.168 34.2546 168.873 33.9961C172.665 33.6514 176.155 33.1774 179.343 32.5742V88.0271C179.343 89.8368 179.559 91.3448 179.99 92.5513C180.421 93.7577 181.11 94.6625 182.058 95.2657C183.006 95.869 184.212 96.1706 185.677 96.1706C187.315 96.1706 188.823 95.7828 190.201 95.0072C191.58 94.2317 192.7 93.1545 193.562 91.7757C194.51 90.3107 194.984 88.6734 194.984 86.8638V48.0855C194.984 44.2077 194.467 41.364 193.433 39.5543C192.399 37.6585 190.503 36.7106 187.745 36.7106V33.9961C190.503 34.2546 193.174 34.3839 195.76 34.3839C200.068 34.3839 204.075 34.2546 207.781 33.9961C211.572 33.6514 215.063 33.1774 218.251 32.5742Z" fill="white"/>
<path d="M260.658 0V89.0607C260.658 92.68 261.175 95.136 262.209 96.4286C263.329 97.7212 265.225 98.3675 267.897 98.3675V101.082C266.173 100.996 263.588 100.91 260.141 100.823C256.694 100.651 253.161 100.565 249.541 100.565C245.922 100.565 242.26 100.651 238.554 100.823C234.849 100.91 232.048 100.996 230.152 101.082V98.3675C232.824 98.3675 234.676 97.7212 235.711 96.4286C236.831 95.136 237.391 92.68 237.391 89.0607V15.5113C237.391 11.6335 236.874 8.78975 235.84 6.98009C234.806 5.08426 232.91 4.13635 230.152 4.13635V1.42188C232.91 1.6804 235.581 1.80966 238.167 1.80966C242.475 1.80966 246.482 1.6804 250.188 1.42188C253.979 1.07718 257.469 0.60322 260.658 0Z" fill="white"/>
<path d="M319.831 0C324.312 0 327.759 0.947915 330.172 2.84374C332.671 4.6534 333.92 7.41096 333.92 11.1164C333.92 14.8219 332.671 17.6226 330.172 19.5184C327.759 21.328 324.312 22.2329 319.831 22.2329C315.35 22.2329 311.86 21.328 309.361 19.5184C306.948 17.6226 305.741 14.8219 305.741 11.1164C305.741 7.41096 306.948 4.6534 309.361 2.84374C311.86 0.947915 315.35 0 319.831 0ZM332.24 32.5737V89.0607C332.24 92.68 332.757 95.136 333.791 96.4286C334.911 97.7212 336.807 98.3675 339.479 98.3675V101.082C337.755 100.996 335.17 100.91 331.723 100.823C328.276 100.651 324.743 100.565 321.124 100.565C317.504 100.565 313.842 100.651 310.136 100.823C306.431 100.91 303.63 100.996 301.734 101.082V98.3675C304.406 98.3675 306.259 97.7212 307.293 96.4286C308.413 95.136 308.973 92.68 308.973 89.0607V48.085C308.973 44.2072 308.456 41.3635 307.422 39.5538C306.388 37.658 304.492 36.7101 301.734 36.7101V33.9956C304.492 34.2541 307.163 34.3834 309.749 34.3834C314.057 34.3834 318.064 34.2541 321.77 33.9956C325.561 33.6509 329.051 33.177 332.24 32.5737Z" fill="white"/>
<path d="M395.458 32.1855C399.422 32.1855 402.525 32.7026 404.765 33.7367C407.092 34.6846 408.858 35.891 410.065 37.356C411.358 38.9071 412.305 40.9753 412.909 43.5605C413.512 46.1457 413.813 49.6358 413.813 54.0306V89.0603C413.813 92.6796 414.331 95.1356 415.365 96.4282C416.485 97.7208 418.381 98.3671 421.052 98.3671V101.082C419.329 100.995 416.7 100.909 413.167 100.823C409.72 100.651 406.316 100.565 402.956 100.565C399.336 100.565 395.803 100.651 392.356 100.823C388.909 100.909 386.324 100.995 384.601 101.082V98.3671C386.841 98.3671 388.392 97.7208 389.254 96.4282C390.116 95.1356 390.547 92.6796 390.547 89.0603V47.0506C390.547 45.2409 390.331 43.7329 389.9 42.5264C389.469 41.32 388.78 40.4152 387.832 39.8119C386.97 39.2087 385.764 38.9071 384.213 38.9071C382.662 38.9071 381.154 39.2949 379.689 40.0705C378.31 40.846 377.146 41.9663 376.199 43.4313C375.337 44.81 374.906 46.4043 374.906 48.2139V89.0603C374.906 92.6796 375.337 95.1356 376.199 96.4282C377.146 97.7208 378.698 98.3671 380.852 98.3671V101.082C379.215 100.995 376.802 100.909 373.613 100.823C370.425 100.651 367.15 100.565 363.79 100.565C360.17 100.565 356.508 100.651 352.802 100.823C349.097 100.909 346.296 100.995 344.4 101.082V98.3671C347.072 98.3671 348.925 97.7208 349.959 96.4282C351.079 95.1356 351.639 92.6796 351.639 89.0603V48.0846C351.639 44.2068 351.122 41.3631 350.088 39.5534C349.054 37.6576 347.158 36.7097 344.4 36.7097V33.9952C347.158 34.2537 349.829 34.383 352.415 34.383C356.723 34.383 360.73 34.2537 364.436 33.9952C368.227 33.6505 371.718 33.1766 374.906 32.5733V41.8801C376.974 38.4332 379.732 35.9772 383.179 34.5122C386.712 32.9611 390.805 32.1855 395.458 32.1855Z" fill="white"/>
<path d="M482.44 13.0547V33.9949H495.108V36.5802H482.44V90.2234C482.44 91.8607 482.742 93.0672 483.345 93.8427C483.948 94.5321 484.939 94.8768 486.318 94.8768C487.266 94.8768 488.386 94.6183 489.679 94.1013C490.972 93.498 492.178 92.507 493.298 91.1283L495.237 92.6794C493.428 95.7816 491.015 98.2807 487.999 100.177C485.069 101.986 481.363 102.891 476.882 102.891C474.038 102.891 471.453 102.503 469.126 101.728C466.886 101.038 465.033 99.9611 463.568 98.4961C461.672 96.6003 460.466 94.2736 459.949 91.516C459.432 88.6723 459.173 85.0099 459.173 80.5289V36.5802H449.35V33.9949H459.173V18.7422C463.741 18.7422 467.877 18.3113 471.582 17.4496C475.374 16.5016 478.993 15.0367 482.44 13.0547Z" fill="white"/>
<path d="M527.888 0V41.8805C529.957 38.4336 532.714 35.9776 536.161 34.5127C539.694 32.9615 543.787 32.186 548.441 32.186C552.405 32.186 555.507 32.703 557.748 33.7371C560.074 34.685 561.841 35.8914 563.047 37.3564C564.34 38.9075 565.288 40.9757 565.891 43.5609C566.494 46.1461 566.796 49.6362 566.796 54.031V89.0607C566.796 92.68 567.313 95.136 568.347 96.4286C569.467 97.7212 571.363 98.3675 574.034 98.3675V101.082C572.311 100.996 569.683 100.91 566.15 100.823C562.703 100.651 559.299 100.565 555.938 100.565C552.319 100.565 548.786 100.651 545.339 100.823C541.892 100.91 539.306 100.996 537.583 101.082V98.3675C539.823 98.3675 541.375 97.7212 542.236 96.4286C543.098 95.136 543.529 92.68 543.529 89.0607V47.051C543.529 45.2413 543.314 43.7333 542.883 42.5268C542.452 41.3204 541.762 40.4156 540.814 39.8124C539.953 39.2091 538.746 38.9075 537.195 38.9075C535.644 38.9075 534.136 39.2953 532.671 40.0709C531.292 40.8464 530.129 41.9667 529.181 43.4317C528.319 44.8104 527.888 46.4047 527.888 48.2143V89.0607C527.888 92.68 528.319 95.136 529.181 96.4286C530.129 97.7212 531.68 98.3675 533.834 98.3675V101.082C532.197 100.996 529.784 100.91 526.596 100.823C523.407 100.651 520.133 100.565 516.772 100.565C513.153 100.565 509.49 100.651 505.785 100.823C502.079 100.91 499.279 100.996 497.383 101.082V98.3675C500.054 98.3675 501.907 97.7212 502.941 96.4286C504.061 95.136 504.621 92.68 504.621 89.0607V15.5113C504.621 11.6335 504.104 8.78975 503.07 6.98009C502.036 5.08426 500.14 4.13635 497.383 4.13635V1.42188C500.14 1.6804 502.812 1.80966 505.397 1.80966C509.706 1.80966 513.713 1.6804 517.418 1.42188C521.21 1.07718 524.7 0.60322 527.888 0Z" fill="white"/>
<path d="M612.693 32.1855C620.276 32.1855 626.222 34.4261 630.531 38.9071C634.926 43.302 637.123 50.7129 637.123 61.14H596.664L596.406 58.684H618.251C618.337 54.4615 618.165 50.5837 617.734 47.0506C617.303 43.4312 616.614 40.5444 615.666 38.3901C614.718 36.2357 613.425 35.1585 611.788 35.1585C609.461 35.1585 607.565 37.0113 606.1 40.7168C604.635 44.3361 603.688 50.5837 603.257 59.4596L603.774 60.4937C603.688 61.3554 603.644 62.2172 603.644 63.0789C603.644 63.9406 603.644 64.8455 603.644 65.7934C603.644 71.8256 604.377 76.522 605.842 79.8828C607.393 83.2436 609.289 85.5703 611.529 86.8629C613.856 88.1555 616.183 88.8018 618.509 88.8018C619.716 88.8018 621.138 88.6295 622.775 88.2848C624.499 87.9401 626.351 87.1645 628.333 85.9581C630.315 84.6655 632.254 82.7266 634.15 80.1413L636.347 80.9169C635.313 84.3639 633.633 87.8108 631.306 91.2578C629.066 94.6186 626.136 97.4192 622.517 99.6597C618.897 101.814 614.502 102.891 609.332 102.891C603.817 102.891 598.776 101.771 594.208 99.5305C589.727 97.2899 586.151 93.5845 583.48 88.414C580.808 83.2436 579.473 76.3066 579.473 67.603C579.473 59.3303 580.938 52.6088 583.868 47.4383C586.797 42.1817 590.761 38.347 595.76 35.9341C600.844 33.4351 606.488 32.1855 612.693 32.1855Z" fill="white"/>
<path d="M708.293 7.75586C713.894 7.75586 718.246 8.31599 721.348 9.43625C724.45 10.5565 727.079 11.7199 729.233 12.9263C730.267 13.5295 731.086 14.0035 731.689 14.3482C732.378 14.6067 733.025 14.7359 733.628 14.7359C734.49 14.7359 735.093 14.262 735.438 13.3141C735.868 12.3662 736.213 10.9443 736.472 9.04847H739.445C739.359 10.8581 739.229 12.9694 739.057 15.3823C738.971 17.7951 738.885 20.9836 738.798 24.9476C738.798 28.9116 738.798 34.1251 738.798 40.5881H735.825C735.481 35.8486 734.36 31.2383 732.465 26.7572C730.655 22.2762 728.113 18.5707 724.838 15.6408C721.65 12.7109 717.815 11.2459 713.334 11.2459C709.542 11.2459 706.397 12.28 703.898 14.3482C701.399 16.4163 700.149 19.3893 700.149 23.2672C700.149 26.4556 700.925 29.2132 702.476 31.5399C704.027 33.7804 706.44 36.1502 709.715 38.6492C713.076 41.1483 717.47 44.2936 722.899 48.0853C726.777 50.7566 730.267 53.428 733.369 56.0994C736.558 58.7708 739.1 61.7869 740.996 65.1477C742.892 68.5085 743.84 72.5586 743.84 77.2982C743.84 83.0719 742.202 87.8545 738.928 91.6462C735.739 95.4378 731.474 98.2816 726.131 100.177C720.788 101.987 714.971 102.892 708.681 102.892C702.821 102.892 698.124 102.375 694.591 101.341C691.144 100.307 688.214 99.2295 685.801 98.1092C683.906 96.9028 682.441 96.2996 681.407 96.2996C680.545 96.2996 679.899 96.7735 679.468 97.7214C679.123 98.6693 678.821 100.091 678.563 101.987H675.59C675.762 99.7465 675.848 97.1613 675.848 94.2314C675.935 91.2153 675.978 87.3375 675.978 82.5979C676.064 77.8583 676.107 71.8262 676.107 64.5014H679.08C679.425 70.5336 680.372 76.1779 681.924 81.4346C683.561 86.6912 686.017 90.9568 689.292 94.2314C692.652 97.4198 697.09 99.014 702.605 99.014C705.794 99.014 708.508 98.5401 710.749 97.5922C713.075 96.5581 714.885 95.0931 716.178 93.1973C717.47 91.3015 718.117 89.0179 718.117 86.3465C718.117 82.7272 717.298 79.5818 715.661 76.9104C714.023 74.1529 711.783 71.6107 708.939 69.284C706.182 66.8712 702.95 64.4583 699.245 62.0454C695.194 59.2879 691.403 56.5303 687.87 53.7727C684.336 51.0152 681.493 47.9129 679.338 44.4659C677.27 41.019 676.236 36.9257 676.236 32.1862C676.236 26.4987 677.744 21.8884 680.76 18.3553C683.776 14.7359 687.74 12.0646 692.652 10.3411C697.564 8.6176 702.778 7.75586 708.293 7.75586Z" fill="white"/>
<path d="M780.226 0V41.8805C782.294 38.4336 785.052 35.9776 788.499 34.5127C792.032 32.9615 796.125 32.186 800.779 32.186C804.743 32.186 807.845 32.703 810.086 33.7371C812.412 34.685 814.179 35.8914 815.385 37.3564C816.678 38.9075 817.626 40.9757 818.229 43.5609C818.832 46.1461 819.134 49.6362 819.134 54.031V89.0607C819.134 92.68 819.651 95.136 820.685 96.4286C821.805 97.7212 823.701 98.3675 826.372 98.3675V101.082C824.649 100.996 822.021 100.91 818.487 100.823C815.041 100.651 811.637 100.565 808.276 100.565C804.657 100.565 801.123 100.651 797.676 100.823C794.229 100.91 791.644 100.996 789.921 101.082V98.3675C792.161 98.3675 793.712 97.7212 794.574 96.4286C795.436 95.136 795.867 92.68 795.867 89.0607V47.051C795.867 45.2413 795.651 43.7333 795.221 42.5268C794.79 41.3204 794.1 40.4156 793.152 39.8124C792.291 39.2091 791.084 38.9075 789.533 38.9075C787.982 38.9075 786.474 39.2953 785.009 40.0709C783.63 40.8464 782.467 41.9667 781.519 43.4317C780.657 44.8104 780.226 46.4047 780.226 48.2143V89.0607C780.226 92.68 780.657 95.136 781.519 96.4286C782.467 97.7212 784.018 98.3675 786.172 98.3675V101.082C784.535 100.996 782.122 100.91 778.934 100.823C775.745 100.651 772.471 100.565 769.11 100.565C765.49 100.565 761.828 100.651 758.123 100.823C754.417 100.91 751.617 100.996 749.721 101.082V98.3675C752.392 98.3675 754.245 97.7212 755.279 96.4286C756.399 95.136 756.959 92.68 756.959 89.0607V15.5113C756.959 11.6335 756.442 8.78975 755.408 6.98009C754.374 5.08426 752.478 4.13635 749.721 4.13635V1.42188C752.478 1.6804 755.15 1.80966 757.735 1.80966C762.044 1.80966 766.051 1.6804 769.756 1.42188C773.548 1.07718 777.038 0.60322 780.226 0Z" fill="white"/>
<path d="M865.031 32.1855C872.614 32.1855 878.56 34.4261 882.869 38.9071C887.263 43.302 889.461 50.7129 889.461 61.14H849.002L848.744 58.684H870.589C870.675 54.4615 870.503 50.5837 870.072 47.0506C869.641 43.4312 868.952 40.5444 868.004 38.3901C867.056 36.2357 865.763 35.1585 864.126 35.1585C861.799 35.1585 859.903 37.0113 858.438 40.7168C856.973 44.3361 856.025 50.5837 855.595 59.4596L856.112 60.4937C856.025 61.3554 855.982 62.2172 855.982 63.0789C855.982 63.9406 855.982 64.8455 855.982 65.7934C855.982 71.8256 856.715 76.522 858.18 79.8828C859.731 83.2436 861.627 85.5703 863.867 86.8629C866.194 88.1555 868.521 88.8018 870.847 88.8018C872.054 88.8018 873.476 88.6295 875.113 88.2848C876.836 87.9401 878.689 87.1645 880.671 85.9581C882.653 84.6655 884.592 82.7266 886.488 80.1413L888.685 80.9169C887.651 84.3639 885.971 87.8108 883.644 91.2578C881.404 94.6186 878.474 97.4192 874.854 99.6597C871.235 101.814 866.84 102.891 861.67 102.891C856.155 102.891 851.113 101.771 846.546 99.5305C842.065 97.2899 838.489 93.5845 835.818 88.414C833.146 83.2436 831.811 76.3066 831.811 67.603C831.811 59.3303 833.276 52.6088 836.205 47.4383C839.135 42.1817 843.099 38.347 848.097 35.9341C853.182 33.4351 858.826 32.1855 865.031 32.1855Z" fill="white"/>
<path d="M925.644 0V89.0607C925.644 92.68 926.161 95.136 927.195 96.4286C928.316 97.7212 930.211 98.3675 932.883 98.3675V101.082C931.159 100.996 928.574 100.91 925.127 100.823C921.68 100.651 918.147 100.565 914.528 100.565C910.908 100.565 907.246 100.651 903.541 100.823C899.835 100.91 897.034 100.996 895.139 101.082V98.3675C897.81 98.3675 899.663 97.7212 900.697 96.4286C901.817 95.136 902.377 92.68 902.377 89.0607V15.5113C902.377 11.6335 901.86 8.78975 900.826 6.98009C899.792 5.08426 897.896 4.13635 895.139 4.13635V1.42188C897.896 1.6804 900.568 1.80966 903.153 1.80966C907.462 1.80966 911.469 1.6804 915.174 1.42188C918.966 1.07718 922.456 0.60322 925.644 0Z" fill="white"/>
<path d="M969.32 0V89.0607C969.32 92.68 969.837 95.136 970.871 96.4286C971.991 97.7212 973.887 98.3675 976.559 98.3675V101.082C974.835 100.996 972.25 100.91 968.803 100.823C965.356 100.651 961.823 100.565 958.204 100.565C954.584 100.565 950.922 100.651 947.216 100.823C943.511 100.91 940.71 100.996 938.814 101.082V98.3675C941.486 98.3675 943.339 97.7212 944.373 96.4286C945.493 95.136 946.053 92.68 946.053 89.0607V15.5113C946.053 11.6335 945.536 8.78975 944.502 6.98009C943.468 5.08426 941.572 4.13635 938.814 4.13635V1.42188C941.572 1.6804 944.243 1.80966 946.829 1.80966C951.137 1.80966 955.144 1.6804 958.85 1.42188C962.642 1.07718 966.132 0.60322 969.32 0Z" fill="white"/>
</svg>
