<svg width="243" height="39" viewBox="0 0 243 39" fill="none" xmlns="http://www.w3.org/2000/svg">
<mask id="mask0_330_24774" style="mask-type:luminance" maskUnits="userSpaceOnUse" x="0" y="0" width="243" height="39">
<path d="M243 0H0V39H243V0Z" fill="white"/>
</mask>
<g mask="url(#mask0_330_24774)">
<path fill-rule="evenodd" clip-rule="evenodd" d="M139.097 20.9316V14.8874L142.401 14.4316V20.7219L139.097 20.9316Z" fill="black"/>
<path fill-rule="evenodd" clip-rule="evenodd" d="M133.22 15.698L136.506 15.2422L136.849 21.0676L133.563 21.2681L133.22 15.698Z" fill="black"/>
<path fill-rule="evenodd" clip-rule="evenodd" d="M224.5 22.5084V17.2574H220.762V14.5316H219.606V23.575L231.579 24.4958H235.389L235.298 23.0281L235.262 22.4264H231.181V18.6339H228.599V22.5175H224.491M231.985 34.8703H236.003L235.56 27.5771H232.626H231.985V34.8612M204.221 34.8612H206.894V35.9278V38.6353H208.79V35.9187H212.889V38.6262H216.573V34.852H219.245V28.4888L215.986 28.5435V27.641H213.72V25.3436H215.995L216.031 23.2833L204.212 22.4081L204.24 34.852M126.511 12.7812L126.746 16.5919L130.475 16.0722V21.4509L127.053 21.6606L127.071 21.9067L130.457 22.0344L130.926 22.0526L139.052 22.3626L153.76 22.9278L153.868 20.0014L146.528 20.4572L145.643 13.9663L151.494 13.155L151.602 15.0421L154.058 14.8871L154.166 11.8878H152.496V8.378L148.126 7.7763L148.352 9.399L149.643 9.2167L150.085 12.5168L145.526 13.1459L144.361 4.54H142.393V13.1367H139.088V4.5764H135.847L136.316 12.2707L133.021 12.4712L132.542 4.5764H130.475V12.7812H126.511ZM108.453 37.4593H112.887V29.0631L110.548 29.209L107.966 29.364L108.453 37.4502M95.0548 23.6389L100.869 24.2952L101.005 26.5379L107.758 26.1185L107.939 29.054L110.259 28.9081L110.864 23.6753L112.869 23.7482V18.4972L106.991 19.3086L106.53 15.9446L100.373 16.3275L100.409 16.9839L95.7409 17.2756L95.0367 23.6389M80.4823 8.0133L80.3108 5.1417L70.957 4.0842L70.5868 7.439L70.4514 8.6332L80.4823 8.0133ZM67.0656 23.8576L88.1297 20.9404L88.7437 15.4614L88.1839 15.3976L88.0394 16.6557L80.7893 15.8352L80.3469 19.8008L81.629 19.8464L81.6109 20.202L66.4878 19.6367L67.0566 23.8668M41.6497 31.9804L51.6535 30.622L52.2494 35.0161H56.7277L55.1386 23.338L52.2314 22.8457L52.105 26.3008L42.372 27.6501L41.6497 31.9986M18.7798 35.5905H24.477L24.7207 33.5302L29.4789 34.3324L29.5872 30.8408L22.5358 30.622L22.5629 29.7742H18.7888V35.5813M18.7888 14.176H24.5672L24.6034 13.082L30.129 13.2553L30.3005 7.6578L22.1475 7.4025L22.2017 4.5673H18.7888V14.176ZM18.3374 14.3766V4.1115H30.4089L30.4901 1.5316H106.043V0H121.942V1.5316H125.825L125.987 4.1115H154.491L154.59 1.5316H200.989L201.386 4.1115H242.991V35.9187H236.418L236.608 38.9909H196.502L196.114 35.8093H192.313L191.473 28.8534H188.728L188.349 25.7356H178.661V21.4236L167.294 20.5757V35.8001H162.156L162.03 38.9818H112.887V37.9151H108.029L107.343 26.6108L93.9803 27.4313L93.7727 29.3001L92.6983 38.9818H57.2965L56.8992 36.0281H41.0176L40.5211 38.9818H29.3615L29.4518 36.0281H18.3555V29.5645H13.2362V32.9741H4.66787V29.5645H0V14.3766H18.3555" fill="black"/>
</g>
</svg>
