<svg width="152" height="44" viewBox="0 0 152 44" fill="none" xmlns="http://www.w3.org/2000/svg">
<mask id="mask0_330_1968" style="mask-type:luminance" maskUnits="userSpaceOnUse" x="0" y="0" width="152" height="44">
<path d="M151.86 0H0V43.05H151.86V0Z" fill="white"/>
</mask>
<g mask="url(#mask0_330_1968)">
<path fill-rule="evenodd" clip-rule="evenodd" d="M80.4603 15.7306L81.6003 14.0406L83.2603 12.8606L85.2803 12.3406L87.3603 12.5706L89.1703 13.4506L90.5103 14.8806L91.1703 16.7406H91.1803L91.3303 18.4106L91.4203 19.4006L92.1403 27.3806L93.8603 27.2306L98.1503 26.8406L96.0103 17.1906L96.0303 15.7806L96.4103 14.5006L97.1203 13.3706L98.1203 12.4806L99.3303 11.9006L100.72 11.6506H117.75H121.07V12.6406H118.74V24.1806H126.06V12.6306H124.9V11.6406H127.1V12.5006H127.05V25.1706H117.75V12.5006H100.72L100.3 12.5306L99.4803 12.7106L98.4803 13.1906L97.5303 14.1006L96.8403 15.9406L96.8703 17.0106L99.5603 29.1306L99.9803 31.0206L100.38 32.8106L100.5 33.6506V33.6906V33.7106L99.8303 36.6406L98.3203 39.2406L96.1203 41.2806L93.4103 42.5906L90.4403 43.0306L87.4503 42.5806L84.7303 41.2706L82.5203 39.2106L81.0203 36.5906L80.3603 33.6506H81.4503L82.1303 36.5606L83.7303 39.0906L86.0803 40.9506L88.9103 41.9306H91.9003L94.7303 40.9506L97.0803 39.0906L98.6803 36.5606L99.3603 33.6506L99.3803 33.0906L99.3203 32.0906L99.1203 31.2006L98.7003 29.3106L98.3603 27.8006H98.2303L93.9403 28.2006L92.2203 28.3506L91.3603 28.4306L90.5503 19.4606L90.4603 18.4706L90.3103 16.8006L89.7003 15.2306L88.9003 14.2806L87.8503 13.5506L86.6003 13.1106L85.2703 13.0306L84.0903 13.2906L83.0203 13.8406L82.0203 14.7406L81.2103 16.1006L80.8703 17.6506L81.0203 19.2906L81.1103 20.2406L81.0703 19.7306L81.1203 20.2706L80.2603 20.3506L80.1803 19.5006H80.1703H80.0803V18.9406H80.1403L80.0303 17.7206L80.4703 15.7106" fill="black"/>
<path fill-rule="evenodd" clip-rule="evenodd" d="M145.79 20.36H144.67V12.5H145.79V20.36Z" fill="black"/>
<path fill-rule="evenodd" clip-rule="evenodd" d="M0 8.80078H0.630001H1.01L1.56 12.4508L2.74 15.9508L4.44 19.0508L6.65 21.8008L9.25 24.0808L12.19 25.8508L15.4 27.0608L18.8 27.6308L21.7 27.5908L24.55 27.0908L27.29 26.1508L29.85 24.8008L32.24 23.0508L34.34 20.9708L36.18 18.5308L37.64 15.8308L38.36 14.5308L39.99 12.9008L41.81 11.9908L43.81 11.6408H74.08H74.13H74.78L74.77 15.2208H76.28V15.8608H74.77V17.1608H76.28V17.8008H74.77V18.8008H80.13V19.5308H74.13H73.93V12.8308L43.81 12.8408L42.27 13.1408L40.85 13.8208L40.83 13.8008L39.32 15.1608L39.3 15.1508L38.6 16.2208L38.56 16.2108L37.02 19.1208L35.04 21.7708L32.76 24.0008L30.17 25.8609L27.37 27.2808L24.38 28.2408V28.2508L21.26 28.7208L18.11 28.6808L14.57 27.9908L11.23 26.6508L8.2 24.7308L5.57 22.3108L5.56 22.3208L3.34 19.4308L1.64 16.2008L0.490002 12.5708L0 8.80078Z" fill="black"/>
<path fill-rule="evenodd" clip-rule="evenodd" d="M127.05 11.6406H145.9H151.86V12.6306H145.9H127.05V11.6406Z" fill="black"/>
<path fill-rule="evenodd" clip-rule="evenodd" d="M90.5598 34.51L90.1998 34.35L90.0498 34L90.1998 33.64L90.5598 33.5L90.9198 33.64L91.0598 34L90.9198 34.35L90.5598 34.51Z" fill="black"/>
<path fill-rule="evenodd" clip-rule="evenodd" d="M6.91016 8.8H7.98016L8.41016 12.24L9.82016 15.42L12.0802 18.05L15.0002 19.93L18.3302 20.88L21.8102 20.84L25.1202 19.8L27.9902 17.85L30.1802 15.16L31.5102 11.95L33.8002 8.86L36.3502 6.75L39.3302 5.32L42.5702 4.65H116.99L117.88 2.3L119.76 0.619999L122.2 0L124.65 0.580002L126.56 2.21L127.51 4.55H151.86V5.02V5.56V5.61H127.1H127.05H124.9V4.55H126.68L125.89 2.61L124.29 1.25L122.26 0.77L120.23 1.25L118.64 2.61L117.85 4.55H119.9V5.65H42.6902L39.4502 6.34L36.5002 7.86L34.1802 9.95L32.4402 12.56L30.9202 15.98L28.5002 18.83L25.3502 20.86L21.7702 21.92L18.0302 21.91L14.4402 20.84L11.3102 18.79L8.89016 15.94L7.38016 12.51L6.91016 8.8Z" fill="black"/>
</g>
</svg>
