<svg width="45" height="81" viewBox="0 0 45 81" fill="none" xmlns="http://www.w3.org/2000/svg">
<mask id="mask0_330_655" style="mask-type:luminance" maskUnits="userSpaceOnUse" x="0" y="0" width="45" height="81">
<path d="M44.55 0H0V80.05H44.55V0Z" fill="white"/>
</mask>
<g mask="url(#mask0_330_655)">
<path fill-rule="evenodd" clip-rule="evenodd" d="M44.5 50.7702L44.55 52.6702L44.53 54.5702L44.42 56.4702L44.25 58.3602L43.99 60.2502L43.48 61.7002L42.9 63.1202L42.24 64.5102L41.5 65.8702L40.69 67.1802L39.81 68.4402L38.87 69.6602L37.86 70.8202L36.79 71.9302L35.66 72.9802L34.47 73.9602L33.24 74.8802L31.95 75.7302L30.62 76.5102L29.26 77.2202L27.85 77.8502L26.41 78.4102L24.95 78.8802L23.46 79.2802L21.95 79.6002L20.43 79.8302L18.9 79.9802L17.36 80.0502L15.82 80.0402L14.62 79.9002L13.44 79.6702L12.27 79.3602L11.13 78.9802L10.02 78.5102L8.95 77.9602L7.91 77.3502L6.93 76.6602L5.99 75.9002L5.11 75.0802L4.29 74.2002L3.53 73.2602L2.84 72.2702L2.22 71.2402L1.68 70.1602L1.21 69.0502L0.82 67.9102L0.510002 66.7502L0.290001 65.5602L0.150002 64.3702L0 58.4102H2.38L2.52 64.2402L2.65 65.3202L2.86 66.3802L3.15 67.4302L3.52 68.4502L3.96 69.4402L4.47 70.4002L5.06 71.3202L5.7 72.1902L6.41 73.0202L7.18 73.7802L8 74.4902L8.88 75.1402L9.8 75.7202L10.75 76.2302L11.75 76.6702L12.77 77.0402L13.82 77.3302L14.88 77.5402L15.96 77.6702L17.4 77.6802L18.83 77.6102L20.25 77.4602L21.67 77.2402L23.07 76.9402L24.45 76.5602L25.81 76.1002L27.14 75.5702L28.48 74.9602L29.77 74.2702L31.03 73.5102L32.24 72.6802L33.39 71.7802L34.5 70.8302L35.56 69.8002L36.55 68.7302L37.48 67.5502L38.34 66.3302L39.13 65.0602L39.84 63.7402L40.48 62.3902L41.04 61.0102L41.52 59.5902L41.82 57.9702L42.06 56.3302L42.21 54.7002L42.29 53.0502V51.4002L42.22 49.7502L42.06 48.1102L41.83 46.4802L41.53 44.8602L41.15 43.2502L40.69 41.6702L40.16 40.1002L39.56 38.5702L42.07 37.7402L42.63 39.5502L43.13 41.3902L43.55 43.2402L43.9 45.1102L44.18 46.9902L44.38 48.8802L44.5 50.7702Z" fill="black"/>
<path fill-rule="evenodd" clip-rule="evenodd" d="M36.7804 9.92L37.1404 11.07L20.1204 16.34L18.1504 9.97L17.8004 8.83L18.2904 8.62L18.7604 8.34L19.1804 8L19.5504 7.61L19.8704 7.17L20.1204 6.7L20.3004 6.19L20.4104 5.66L20.4504 5.12L20.4104 4.56L20.2904 4.02L20.1004 3.5L19.8304 3.01L19.5004 2.56L19.1104 2.16L18.6604 1.83L18.1704 1.56L17.6504 1.36L17.1104 1.24L16.5504 1.2L15.9904 1.23L15.4504 1.35L15.2804 1.4L12.2204 2.35L1.35039 5.72V18.27H0.150391V5.72V4.83L15.1204 0.189999L15.7404 0.0600014L16.3704 0L17.0004 0.0200005L17.6204 0.110001L18.2304 0.290001L18.8104 0.529999L19.3604 0.849998L19.8604 1.23L20.3104 1.67L20.7104 2.16L21.0404 2.69L21.3004 3.27L21.4904 3.87L21.6104 4.49L21.6504 5.12L21.6104 5.76L21.4904 6.4L21.2904 7.01L21.0104 7.6L20.6604 8.14L20.2404 8.64L19.7704 9.08L19.2504 9.46L20.9104 14.83L36.7804 9.92Z" fill="black"/>
</g>
</svg>
