<svg width="101" height="109" viewBox="0 0 101 109" fill="none" xmlns="http://www.w3.org/2000/svg">
<mask id="mask0_330_1979" style="mask-type:luminance" maskUnits="userSpaceOnUse" x="0" y="0" width="101" height="109">
<path d="M100.51 0H0V108.89H100.51V0Z" fill="white"/>
</mask>
<g mask="url(#mask0_330_1979)">
<path fill-rule="evenodd" clip-rule="evenodd" d="M34.52 66.5696L23.95 69.3896L19.33 70.6196L18.94 69.1096L18.75 68.3896L26.18 66.3996L36.2 63.7096L36.63 65.2696L37.65 68.9696L37.99 70.2096L39.07 73.9596L40.66 76.9696L43.21 79.2195L46.23 80.4295L49.45 80.5595L52.87 79.4895L55.54 77.4496L57.31 74.6196L58 71.1796L57.89 69.7296L57.6 68.2696L57.53 67.9396L56.83 65.1196L56.46 63.7396L58.54 63.0996L59.13 64.8396L59.65 66.5796L60.04 68.3196L60.27 70.0496L60.07 73.4996L58.7 76.9396L56.45 79.8195L53.72 81.7795L50.53 82.7995L46.89 82.8495L43.49 82.0295L40.68 80.4095L38.49 78.0296L36.91 74.8996L36.14 72.4896L35.49 70.0296L34.88 67.7496L34.67 67.0596L34.52 66.5696Z" fill="black"/>
<path fill-rule="evenodd" clip-rule="evenodd" d="M81.4404 53.5798L82.1204 45.8298L82.2304 44.5498L82.3804 42.8198L82.4304 42.2598L94.9604 43.3598L94.9204 43.7798H94.9304L94.7604 45.6498L94.4904 48.4698L92.1204 48.2598L92.3604 45.6498L90.8004 45.4998L84.5904 44.9398L84.0804 49.9498L83.7004 53.7498L82.1204 53.6298L81.4404 53.5798Z" fill="black"/>
<path fill-rule="evenodd" clip-rule="evenodd" d="M41.3497 70.9497L41.8997 73.6097L43.4197 75.8597L45.6697 77.3497L48.3197 77.8597L50.9697 77.2897L53.2097 75.7497L54.6897 73.5297L55.2197 70.8497L54.6697 68.2097L53.1497 65.9797L50.8797 64.5097L48.2197 64.0097L45.4997 64.5597L43.3097 66.0397L41.8597 68.2397L41.3497 70.9597M40.2197 70.8797L40.3897 69.2797L40.8697 67.7397L42.5897 65.2197L45.1497 63.5397L46.6997 63.0797L48.3097 62.9297L49.8997 63.0997L51.4297 63.5797L53.9997 65.3297L55.7397 67.8897L56.2097 69.3997L56.3497 70.9697L56.1597 72.5497L55.6597 74.0597L53.8797 76.6197L51.2997 78.3597L49.7897 78.8297L48.2197 78.9797L46.6297 78.7997L45.1097 78.3097L42.5497 76.5397L40.8297 73.9697L40.3697 72.4497L40.2297 70.8697" fill="black"/>
<path fill-rule="evenodd" clip-rule="evenodd" d="M0.419998 46.25L0 44.68L3.81 43.61L4.69 43.36L5.96 43L6.27 44.13L6.36 44.46L5.31 44.78L1.76 45.72L5.2 58.41L25.56 52.9L24.22 47.71L23.9 46.49L24.52 46.31L27.32 45.54L33.63 44.27L39.97 43.68L46.38 43.8L52.72 44.65L58.17 46.1L63.19 48.25L67.72 51.04L71.78 54.47L75.28 58.48L78.14 62.96L80.36 67.94L81.9 73.36L82.53 78.33L82.27 83.16L81.01 87.81L78.64 92.28L76.75 94.71L74.56 96.88L72.17 98.78L69.58 100.46L65.35 102.69L60.96 104.49L56.43 105.92L51.8 107.05L40.53 108.89L39.94 106.62L40.43 106.57L47.66 105.52L54.83 103.94L61.5 101.81L67.84 98.81L71.8 96.16L75.26 92.89L77.75 89.39L79.38 85.61L80.18 81.58L80.12 77.31L79.47 73.18L78.42 69.29L76.99 65.66L75.14 62.24L72.88 59.06L70.25 56.19L67.2 53.55L63.73 51.18L60.24 49.35L56.56 47.95L52.77 46.97L48.85 46.35L43.54 45.97L38.21 46.08L32.92 46.69L27.71 47.77L26.54 48.11L26.22 48.27L25.98 48.39L27.44 54.11L26.54 54.35L26.42 54.38L15.2 57.39L4.2 60.34L0.419998 46.25Z" fill="black"/>
<path fill-rule="evenodd" clip-rule="evenodd" d="M12.6104 22.1502V22.0002V19.7402H51.1404L52.2404 23.8502L52.7004 25.5902L53.8805 30.0302L55.9405 30.1502L60.1704 30.3802L68.4705 30.7102L77.1404 31.0602L85.8205 31.5002L88.0505 31.7602L90.1305 32.2802L93.7804 34.0702L96.7505 36.8802L97.9504 38.6702L98.9705 40.7002L99.8605 43.2902L100.37 45.9702L100.51 48.7302L100.31 51.6002L99.0404 51.4302L98.0505 51.3002L98.0604 49.8102L98.0404 46.6802L97.6305 43.8602L96.6804 41.1602L95.0505 38.4502L92.9405 36.3502L90.3605 34.8602L87.3404 33.9602L85.7105 33.7402L84.0604 33.6302L67.4304 32.9502L54.9504 32.4502L54.5205 32.4202L53.0705 32.3002L52.1605 32.2202L50.8605 27.4502L49.4105 22.1502H12.6104Z" fill="black"/>
<path fill-rule="evenodd" clip-rule="evenodd" d="M8.53011 8.86L8.12012 7.38L34.85 0L35.26 1.48L8.53011 8.86Z" fill="black"/>
</g>
</svg>
