<svg width="1749" height="13" viewBox="0 0 1749 13" fill="none" xmlns="http://www.w3.org/2000/svg">
<g clip-path="url(#clip0_1588_97)">
<g opacity="0.5">
<path d="M0 6.15039H1748.05" stroke="white" stroke-width="0.5" stroke-miterlimit="10"/>
<path d="M17.7695 0V12.3" stroke="white" stroke-width="2" stroke-miterlimit="10"/>
<path d="M621.57 0V12.3" stroke="white" stroke-width="2" stroke-miterlimit="10"/>
<path d="M1225.37 0V12.3" stroke="white" stroke-width="2" stroke-miterlimit="10"/>
<path d="M1732.56 0V12.3" stroke="white" stroke-width="2" stroke-miterlimit="10"/>
<path d="M29.8496 3.41992V8.88992" stroke="white" stroke-width="0.5" stroke-miterlimit="10"/>
<path d="M41.9199 3.41992V8.88992" stroke="white" stroke-width="0.5" stroke-miterlimit="10"/>
<path d="M54 3.41992V8.88992" stroke="white" stroke-width="0.5" stroke-miterlimit="10"/>
<path d="M66.0801 3.41992V8.88992" stroke="white" stroke-width="0.5" stroke-miterlimit="10"/>
<path d="M78.1504 3.41992V8.88992" stroke="white" stroke-width="0.5" stroke-miterlimit="10"/>
<path d="M90.2305 3.41992V8.88992" stroke="white" stroke-width="0.5" stroke-miterlimit="10"/>
<path d="M102.3 3.41992V8.88992" stroke="white" stroke-width="0.5" stroke-miterlimit="10"/>
<path d="M114.38 3.41992V8.88992" stroke="white" stroke-width="0.5" stroke-miterlimit="10"/>
<path d="M126.46 3.41992V8.88992" stroke="white" stroke-width="0.5" stroke-miterlimit="10"/>
<path d="M138.53 3.41992V8.88992" stroke="white" stroke-width="0.5" stroke-miterlimit="10"/>
<path d="M150.61 3.41992V8.88992" stroke="white" stroke-width="0.5" stroke-miterlimit="10"/>
<path d="M162.68 3.41992V8.88992" stroke="white" stroke-width="0.5" stroke-miterlimit="10"/>
<path d="M174.76 3.41992V8.88992" stroke="white" stroke-width="0.5" stroke-miterlimit="10"/>
<path d="M186.84 3.41992V8.88992" stroke="white" stroke-width="0.5" stroke-miterlimit="10"/>
<path d="M198.91 3.41992V8.88992" stroke="white" stroke-width="0.5" stroke-miterlimit="10"/>
<path d="M210.99 3.41992V8.88992" stroke="white" stroke-width="0.5" stroke-miterlimit="10"/>
<path d="M223.06 3.41992V8.88992" stroke="white" stroke-width="0.5" stroke-miterlimit="10"/>
<path d="M235.14 3.41992V8.88992" stroke="white" stroke-width="0.5" stroke-miterlimit="10"/>
<path d="M247.22 3.41992V8.88992" stroke="white" stroke-width="0.5" stroke-miterlimit="10"/>
<path d="M259.29 3.41992V8.88992" stroke="white" stroke-width="0.5" stroke-miterlimit="10"/>
<path d="M271.37 3.41992V8.88992" stroke="white" stroke-width="0.5" stroke-miterlimit="10"/>
<path d="M283.44 3.41992V8.88992" stroke="white" stroke-width="0.5" stroke-miterlimit="10"/>
<path d="M295.52 3.41992V8.88992" stroke="white" stroke-width="0.5" stroke-miterlimit="10"/>
<path d="M307.59 3.41992V8.88992" stroke="white" stroke-width="0.5" stroke-miterlimit="10"/>
<path d="M319.67 3.41992V8.88992" stroke="white" stroke-width="0.5" stroke-miterlimit="10"/>
<path d="M331.75 3.41992V8.88992" stroke="white" stroke-width="0.5" stroke-miterlimit="10"/>
<path d="M343.82 3.41992V8.88992" stroke="white" stroke-width="0.5" stroke-miterlimit="10"/>
<path d="M355.9 3.41992V8.88992" stroke="white" stroke-width="0.5" stroke-miterlimit="10"/>
<path d="M367.97 3.41992V8.88992" stroke="white" stroke-width="0.5" stroke-miterlimit="10"/>
<path d="M380.05 3.41992V8.88992" stroke="white" stroke-width="0.5" stroke-miterlimit="10"/>
<path d="M392.13 3.41992V8.88992" stroke="white" stroke-width="0.5" stroke-miterlimit="10"/>
<path d="M404.2 3.41992V8.88992" stroke="white" stroke-width="0.5" stroke-miterlimit="10"/>
<path d="M416.28 3.41992V8.88992" stroke="white" stroke-width="0.5" stroke-miterlimit="10"/>
<path d="M428.35 3.41992V8.88992" stroke="white" stroke-width="0.5" stroke-miterlimit="10"/>
<path d="M440.43 3.41992V8.88992" stroke="white" stroke-width="0.5" stroke-miterlimit="10"/>
<path d="M452.51 3.41992V8.88992" stroke="white" stroke-width="0.5" stroke-miterlimit="10"/>
<path d="M464.58 3.41992V8.88992" stroke="white" stroke-width="0.5" stroke-miterlimit="10"/>
<path d="M476.66 3.41992V8.88992" stroke="white" stroke-width="0.5" stroke-miterlimit="10"/>
<path d="M488.73 3.41992V8.88992" stroke="white" stroke-width="0.5" stroke-miterlimit="10"/>
<path d="M500.81 3.41992V8.88992" stroke="white" stroke-width="0.5" stroke-miterlimit="10"/>
<path d="M512.89 3.41992V8.88992" stroke="white" stroke-width="0.5" stroke-miterlimit="10"/>
<path d="M524.96 3.41992V8.88992" stroke="white" stroke-width="0.5" stroke-miterlimit="10"/>
<path d="M537.04 3.41992V8.88992" stroke="white" stroke-width="0.5" stroke-miterlimit="10"/>
<path d="M549.11 3.41992V8.88992" stroke="white" stroke-width="0.5" stroke-miterlimit="10"/>
<path d="M561.19 3.41992V8.88992" stroke="white" stroke-width="0.5" stroke-miterlimit="10"/>
<path d="M573.27 3.41992V8.88992" stroke="white" stroke-width="0.5" stroke-miterlimit="10"/>
<path d="M585.34 3.41992V8.88992" stroke="white" stroke-width="0.5" stroke-miterlimit="10"/>
<path d="M597.42 3.41992V8.88992" stroke="white" stroke-width="0.5" stroke-miterlimit="10"/>
<path d="M609.49 3.41992V8.88992" stroke="white" stroke-width="0.5" stroke-miterlimit="10"/>
<path d="M621.57 3.41992V8.88992" stroke="white" stroke-width="0.5" stroke-miterlimit="10"/>
<path d="M633.65 3.41992V8.88992" stroke="white" stroke-width="0.5" stroke-miterlimit="10"/>
<path d="M645.72 3.41992V8.88992" stroke="white" stroke-width="0.5" stroke-miterlimit="10"/>
<path d="M657.8 3.41992V8.88992" stroke="white" stroke-width="0.5" stroke-miterlimit="10"/>
<path d="M669.87 3.41992V8.88992" stroke="white" stroke-width="0.5" stroke-miterlimit="10"/>
<path d="M681.95 3.41992V8.88992" stroke="white" stroke-width="0.5" stroke-miterlimit="10"/>
<path d="M694.03 3.41992V8.88992" stroke="white" stroke-width="0.5" stroke-miterlimit="10"/>
<path d="M706.1 3.41992V8.88992" stroke="white" stroke-width="0.5" stroke-miterlimit="10"/>
<path d="M718.18 3.41992V8.88992" stroke="white" stroke-width="0.5" stroke-miterlimit="10"/>
<path d="M730.25 3.41992V8.88992" stroke="white" stroke-width="0.5" stroke-miterlimit="10"/>
<path d="M742.33 3.41992V8.88992" stroke="white" stroke-width="0.5" stroke-miterlimit="10"/>
<path d="M754.41 3.41992V8.88992" stroke="white" stroke-width="0.5" stroke-miterlimit="10"/>
<path d="M766.48 3.41992V8.88992" stroke="white" stroke-width="0.5" stroke-miterlimit="10"/>
<path d="M778.56 3.41992V8.88992" stroke="white" stroke-width="0.5" stroke-miterlimit="10"/>
<path d="M790.63 3.41992V8.88992" stroke="white" stroke-width="0.5" stroke-miterlimit="10"/>
<path d="M802.71 3.41992V8.88992" stroke="white" stroke-width="0.5" stroke-miterlimit="10"/>
<path d="M814.78 3.41992V8.88992" stroke="white" stroke-width="0.5" stroke-miterlimit="10"/>
<path d="M826.86 3.41992V8.88992" stroke="white" stroke-width="0.5" stroke-miterlimit="10"/>
<path d="M838.94 3.41992V8.88992" stroke="white" stroke-width="0.5" stroke-miterlimit="10"/>
<path d="M851.01 3.41992V8.88992" stroke="white" stroke-width="0.5" stroke-miterlimit="10"/>
<path d="M863.09 3.41992V8.88992" stroke="white" stroke-width="0.5" stroke-miterlimit="10"/>
<path d="M875.16 3.41992V8.88992" stroke="white" stroke-width="0.5" stroke-miterlimit="10"/>
<path d="M887.24 3.41992V8.88992" stroke="white" stroke-width="0.5" stroke-miterlimit="10"/>
<path d="M899.32 3.41992V8.88992" stroke="white" stroke-width="0.5" stroke-miterlimit="10"/>
<path d="M911.39 3.41992V8.88992" stroke="white" stroke-width="0.5" stroke-miterlimit="10"/>
<path d="M923.47 3.41992V8.88992" stroke="white" stroke-width="0.5" stroke-miterlimit="10"/>
<path d="M935.54 3.41992V8.88992" stroke="white" stroke-width="0.5" stroke-miterlimit="10"/>
<path d="M947.62 3.41992V8.88992" stroke="white" stroke-width="0.5" stroke-miterlimit="10"/>
<path d="M959.7 3.41992V8.88992" stroke="white" stroke-width="0.5" stroke-miterlimit="10"/>
<path d="M971.77 3.41992V8.88992" stroke="white" stroke-width="0.5" stroke-miterlimit="10"/>
<path d="M983.85 3.41992V8.88992" stroke="white" stroke-width="0.5" stroke-miterlimit="10"/>
<path d="M995.92 3.41992V8.88992" stroke="white" stroke-width="0.5" stroke-miterlimit="10"/>
<path d="M1008 3.41992V8.88992" stroke="white" stroke-width="0.5" stroke-miterlimit="10"/>
<path d="M1020.08 3.41992V8.88992" stroke="white" stroke-width="0.5" stroke-miterlimit="10"/>
<path d="M1032.15 3.41992V8.88992" stroke="white" stroke-width="0.5" stroke-miterlimit="10"/>
<path d="M1044.23 3.41992V8.88992" stroke="white" stroke-width="0.5" stroke-miterlimit="10"/>
<path d="M1056.3 3.41992V8.88992" stroke="white" stroke-width="0.5" stroke-miterlimit="10"/>
<path d="M1068.38 3.41992V8.88992" stroke="white" stroke-width="0.5" stroke-miterlimit="10"/>
<path d="M1080.46 3.41992V8.88992" stroke="white" stroke-width="0.5" stroke-miterlimit="10"/>
<path d="M1092.53 3.41992V8.88992" stroke="white" stroke-width="0.5" stroke-miterlimit="10"/>
<path d="M1104.61 3.41992V8.88992" stroke="white" stroke-width="0.5" stroke-miterlimit="10"/>
<path d="M1116.68 3.41992V8.88992" stroke="white" stroke-width="0.5" stroke-miterlimit="10"/>
<path d="M1128.76 3.41992V8.88992" stroke="white" stroke-width="0.5" stroke-miterlimit="10"/>
<path d="M1140.84 3.41992V8.88992" stroke="white" stroke-width="0.5" stroke-miterlimit="10"/>
<path d="M1152.91 3.41992V8.88992" stroke="white" stroke-width="0.5" stroke-miterlimit="10"/>
<path d="M1164.99 3.41992V8.88992" stroke="white" stroke-width="0.5" stroke-miterlimit="10"/>
<path d="M1177.06 3.41992V8.88992" stroke="white" stroke-width="0.5" stroke-miterlimit="10"/>
<path d="M1189.14 3.41992V8.88992" stroke="white" stroke-width="0.5" stroke-miterlimit="10"/>
<path d="M1201.22 3.41992V8.88992" stroke="white" stroke-width="0.5" stroke-miterlimit="10"/>
<path d="M1213.29 3.41992V8.88992" stroke="white" stroke-width="0.5" stroke-miterlimit="10"/>
<path d="M1225.37 3.41992V8.88992" stroke="white" stroke-width="0.5" stroke-miterlimit="10"/>
<path d="M1237.44 3.41992V8.88992" stroke="white" stroke-width="0.5" stroke-miterlimit="10"/>
<path d="M1249.52 3.41992V8.88992" stroke="white" stroke-width="0.5" stroke-miterlimit="10"/>
<path d="M1261.59 3.41992V8.88992" stroke="white" stroke-width="0.5" stroke-miterlimit="10"/>
<path d="M1273.67 3.41992V8.88992" stroke="white" stroke-width="0.5" stroke-miterlimit="10"/>
<path d="M1285.75 3.41992V8.88992" stroke="white" stroke-width="0.5" stroke-miterlimit="10"/>
<path d="M1297.82 3.41992V8.88992" stroke="white" stroke-width="0.5" stroke-miterlimit="10"/>
<path d="M1309.9 3.41992V8.88992" stroke="white" stroke-width="0.5" stroke-miterlimit="10"/>
<path d="M1321.97 3.41992V8.88992" stroke="white" stroke-width="0.5" stroke-miterlimit="10"/>
<path d="M1334.05 3.41992V8.88992" stroke="white" stroke-width="0.5" stroke-miterlimit="10"/>
<path d="M1346.13 3.41992V8.88992" stroke="white" stroke-width="0.5" stroke-miterlimit="10"/>
<path d="M1358.2 3.41992V8.88992" stroke="white" stroke-width="0.5" stroke-miterlimit="10"/>
<path d="M1370.28 3.41992V8.88992" stroke="white" stroke-width="0.5" stroke-miterlimit="10"/>
<path d="M1382.35 3.41992V8.88992" stroke="white" stroke-width="0.5" stroke-miterlimit="10"/>
<path d="M1394.43 3.41992V8.88992" stroke="white" stroke-width="0.5" stroke-miterlimit="10"/>
<path d="M1406.51 3.41992V8.88992" stroke="white" stroke-width="0.5" stroke-miterlimit="10"/>
<path d="M1418.58 3.41992V8.88992" stroke="white" stroke-width="0.5" stroke-miterlimit="10"/>
<path d="M1430.66 3.41992V8.88992" stroke="white" stroke-width="0.5" stroke-miterlimit="10"/>
<path d="M1442.73 3.41992V8.88992" stroke="white" stroke-width="0.5" stroke-miterlimit="10"/>
<path d="M1454.81 3.41992V8.88992" stroke="white" stroke-width="0.5" stroke-miterlimit="10"/>
<path d="M1466.89 3.41992V8.88992" stroke="white" stroke-width="0.5" stroke-miterlimit="10"/>
<path d="M1478.96 3.41992V8.88992" stroke="white" stroke-width="0.5" stroke-miterlimit="10"/>
<path d="M1491.04 3.41992V8.88992" stroke="white" stroke-width="0.5" stroke-miterlimit="10"/>
<path d="M1503.11 3.41992V8.88992" stroke="white" stroke-width="0.5" stroke-miterlimit="10"/>
<path d="M1515.19 3.41992V8.88992" stroke="white" stroke-width="0.5" stroke-miterlimit="10"/>
<path d="M1527.27 3.41992V8.88992" stroke="white" stroke-width="0.5" stroke-miterlimit="10"/>
<path d="M1539.34 3.41992V8.88992" stroke="white" stroke-width="0.5" stroke-miterlimit="10"/>
<path d="M1551.42 3.41992V8.88992" stroke="white" stroke-width="0.5" stroke-miterlimit="10"/>
<path d="M1563.49 3.41992V8.88992" stroke="white" stroke-width="0.5" stroke-miterlimit="10"/>
<path d="M1575.57 3.41992V8.88992" stroke="white" stroke-width="0.5" stroke-miterlimit="10"/>
<path d="M1587.65 3.41992V8.88992" stroke="white" stroke-width="0.5" stroke-miterlimit="10"/>
<path d="M1599.72 3.41992V8.88992" stroke="white" stroke-width="0.5" stroke-miterlimit="10"/>
<path d="M1611.8 3.41992V8.88992" stroke="white" stroke-width="0.5" stroke-miterlimit="10"/>
<path d="M1623.87 3.41992V8.88992" stroke="white" stroke-width="0.5" stroke-miterlimit="10"/>
<path d="M1635.95 3.41992V8.88992" stroke="white" stroke-width="0.5" stroke-miterlimit="10"/>
<path d="M1648.03 3.41992V8.88992" stroke="white" stroke-width="0.5" stroke-miterlimit="10"/>
<path d="M1660.1 3.41992V8.88992" stroke="white" stroke-width="0.5" stroke-miterlimit="10"/>
<path d="M1672.18 3.41992V8.88992" stroke="white" stroke-width="0.5" stroke-miterlimit="10"/>
<path d="M1684.25 3.41992V8.88992" stroke="white" stroke-width="0.5" stroke-miterlimit="10"/>
<path d="M1696.33 3.41992V8.88992" stroke="white" stroke-width="0.5" stroke-miterlimit="10"/>
<path d="M1708.41 3.41992V8.88992" stroke="white" stroke-width="0.5" stroke-miterlimit="10"/>
<path d="M1720.48 3.41992V8.88992" stroke="white" stroke-width="0.5" stroke-miterlimit="10"/>
<path d="M1732.56 3.41992V8.88992" stroke="white" stroke-width="0.5" stroke-miterlimit="10"/>
</g>
</g>
<defs>
<clipPath id="clip0_1588_97">
<rect width="1748.05" height="12.3" fill="white"/>
</clipPath>
</defs>
</svg>
